<?xml version="1.0" encoding="UTF-8"?>
<svg id="Layer_2" data-name="Layer 2" xmlns="http://www.w3.org/2000/svg" viewBox="0 0 1698.93 1282.84">
  <defs>
    <style>
      .cls-1 {
        fill: #0743a3;
      }

      .cls-2 {
        fill: #fff;
      }

      .cls-3 {
        fill: #d9f2ff;
      }

      .cls-4 {
        fill: #4e93fa;
      }

      .cls-5 {
        fill: #eef9ff;
      }

      .cls-6 {
        fill: #85b2ff;
      }
    </style>
  </defs>
  <g id="Layer_1-2" data-name="Layer 1">
    <g>
      <path class="cls-3" d="m469.05,981.15c-6.51,3.59-11.06,9.28-15.75,14.8-8.94,10.51-16.22,22.22-24,33.57-1.56,2.27-2.4,2.58-4.22.5-8.47-9.66-13.89-20.72-14.8-33.61-.34-4.8-.73-9.73.73-14.55.52-1.71.33-3.8-2.07-4.23-2.54-.45-4.37.98-4.47,3.35-.53,12.54-.53,24.92,5.89,36.49,3.42,6.16,7.03,12.01,12.19,16.82,1.67,1.55,1.32,3.11.33,4.81-4.78,8.25-9.62,16.47-14.29,24.78-4.44,7.9-8.61,15.93-12.09,24.32-2.35,5.66-5.25,11.1-7.76,16.7-1.11,2.48-2.34.93-3.41.25-11.06-7.03-20.95-15.34-27.09-27.17-3.15-6.08-6.87-12.11-7.26-19.23-.14-2.46-1.13-3.66-3.4-3.46-2.38.21-2.91,1.33-2.3,3.99,3.18,13.86,10.11,25.14,20.35,35.13,6.21,6.06,12.63,11.51,19.88,16.09,1.96,1.23.81,2.57.32,3.79-4.06,10.26-7.03,20.86-9.84,31.51-2.44,9.23-4.78,18.46-5.95,27.96-.38,3.1-1.22,4.66-5.05,3.22-7.72-2.89-13.54-8.08-19.35-14.79.53,4.67,2.3,8,3.83,11.29,1.54,3.34.71,4.64-2.67,5.44-10.09,2.42-20.32,1.97-30.55,1.89-3.49-2-7.48-1.61-11.23-2.38-29.65-6.07-56.94-18.11-82.7-33.62-20.95-12.61-40.09-27.64-56.65-45.75-10.14-11.09-18.47-23.35-24.68-37.09-9.53-21.1-7.83-41.66,3.09-61.5,5.69-10.34,12.91-19.67,21.78-27.77,18.15-16.56,39.41-26.51,63.26-31.49,8.02-1.67,16.11-2.8,24.29-3.49-.84-.39-1.63-.37-2.43-.39-18.59-.55-36.5,3.05-54.05,8.8-7.19-4.37-14.95-7.68-22.22-11.95-13.59-8-26.27-17.14-38.28-27.35-7.58-6.44-14.02-14.02-21.65-20.37-.28-.74-.4-1.62-.88-2.21-8.02-9.87-15.46-20.06-21.76-31.23-5.62-9.98-10.49-20.21-14.54-30.85-3.37-8.85-5.6-18.08-8.21-27.18-3.1-10.83-4.76-21.87-5.22-32.83-.92-22-.2-43.88,5.14-65.68,4.79-19.57,12.19-37.85,21.21-55.58,8.43-16.56,20.32-30.82,33.06-44.21,7.7-8.09,16.67-14.77,25.74-21.41,13.97-10.23,29.35-17.8,44.99-24.49,18.13-7.76,37.14-13.53,55.85-19.9,15.48-5.28,30.62-11.13,44.71-19.67,20.11-12.18,33.33-29.2,38.85-52.14,3.56-14.78,1.79-29.19-2.54-43.49-.44-1.44-.79-2.84-2.35-3.47,1.65-1.6,3.72-.86,5.59-.86,69.71-.04,139.42-.03,209.13-.04,8.68,0,13.18-4.51,13.19-13.18.01-19.05,0-38.1,0-57.16,0-15.47,0-30.94,0-46.41,0-2.31-.35-4.74,3.06-4.85,17.3.56,33.62-2.66,49.01-11.11,31.58-17.35,50.81-52.85,47.13-88.07.41-.48.35-.92-.1-1.33-.67-10.59-4.3-20.39-7.99-30.17,1.85.55,3.8.88,5.53,1.69,10.94,5.11,21.31,11.28,31.72,17.4,10.45,6.14,21.18,11.8,31.54,18.08,13.16,7.98,26.92,14.64,41.5,19.48,21.58,7.17,43.65,7.87,65.91,3.91,9.08-1.62,18.07-4.24,26.34-8.04,12.97-5.97,24.77-14.23,34.79-24.47,14.73-15.05,28.75-30.8,43.37-45.97,7.85-8.15,16.63-15.27,26.03-21.69,10.03-6.85,20.58-12.64,31.45-17.97,7.96-3.91,16.38-6.48,24.91-8.74-.68.7-1.28,1.49-2.05,2.08-12.92,9.98-24.7,21.1-34.88,33.91-28.2,35.49-42.54,75.38-39.76,121.12,1.35,22.26,6.71,43.41,16.66,63.16,16.06,31.9,39.54,57.27,70.09,75.99,20.52,12.58,42.43,21.65,65.97,26.77,27.1,5.9,54.4,7.42,81.9,3.48,14.37-2.06,28.75-4.21,42.28-9.77,5.17-2.12,10.79-2.72,15.74-5.68,4.16-2.49,8.69-2.84,13.17.43,3.25,2.37,7.03,4.05,10.65,5.88,25.36,12.81,50.34,26.36,76.03,38.52,13.52,6.4,27.35,12.08,40.98,18.2-7.17,3.52-15.09,4.25-22.7,6.12-13.49,3.31-27.03,6.45-40.49,9.86-10.95,2.77-21.86,5.74-32.73,8.85-3.04.87-5.86,2.51-8.78,3.8-12.84,3.52-24.3,9.56-33.9,18.84-3.88,3.75-8.53,7.19-8.83,13.25-.28,5.47-2.14,11.68.86,16.22,2.83,4.28,5.36,9.19,9.72,12.43-2.87,3.94-7.19,5.95-11.14,8.5-2.62,1.69-5.67,2.57-7.66,5.44-6.4,9.23-5.9,19.25-3.18,29.21,2,7.3,3.78,15.03,10.23,20.22-.39,2.27.77,4.12,1.87,5.85,2.25,3.51,2.49,7.41,1.76,11.18-.62,3.2-.67,6.37-.89,9.56-1.42.3-2.84.59-4.26.89-10.71,2.21-20.43,6.35-28.08,14.49-1.23.38-2.47.75-3.71,1.13-5-8.95-9.66-18.08-15.23-26.74-13.79-21.39-29.15-41.51-46.6-60.06-17.9-19.04-37.66-35.94-58.82-51.18-28.36-20.42-59.1-36.46-91.88-48.56-41-15.14-83.47-22.54-127.08-23.71-25.13-.67-50.1,1.06-74.88,5.4-35.45,6.22-69.5,16.85-102.06,32.26-17.55,8.31-34.56,17.68-50.5,28.63-17,11.68-33.53,24.12-48.54,38.47-5.2,4.97-10.9,9.7-15.76,14.84-6.34,6.71-12.04,14.2-18.09,21.31-12.52,14.72-23.7,30.4-33.67,47.05-6.64,11.09-13.09,22.23-18.68,33.87-4.44,9.23-9.72,18.23-12.75,27.91-2.83,9.03-6.43,17.77-9.08,26.88-9.36,32.18-15.58,64.82-16.73,98.33-.56,16.27-.74,32.56.82,48.82,2.6,27.04,6.35,53.86,14.69,79.84-3.08-.01-6.19.25-9.23-.09-9.41-1.05-25.43.14-34.43,3.02,15.06-2.19,29.97-.96,44.82,1.68,2.59,6.78,5.15,13.57,6.87,20.64Zm-182.84-420.36c-5.45-.59-10.86.38-16.04,1.25-28.67,4.83-51.9,18.93-67.2,43.84-18.07,29.42-20.4,60.43-6,92.28,5.7,12.61,13.65,23.4,24.25,32.37,21.16,17.92,45.37,25.85,73.02,23.07,25.6-2.57,46.7-13.71,63.53-33.11,17.73-20.44,24.62-44.22,22.3-70.98-.22-2.48-2.08-5.06-1.54-6.79,2.17-7-1.46-12.88-3.51-18.67-5.5-15.52-14.78-28.63-27.41-39.53-17.75-15.32-38.45-22.32-61.4-23.74Zm39.7,564.04c-.12-6.19-1.02-12.05-3.45-17.46-1.07-2.39-2.6-4.27-.54-6.95.54-.7.83-4.2-1.63-2.83-3.59,2-3.98-.81-5.04-2.4-14.35-21.54-30.97-41.24-48.58-60.14-6.33-6.8-6.43-6.65-2.26-14.72,1.04-2.01,1.83-4.16,2.71-6.26,7.28-17.38,8.37-34.79.29-52.27-1.1-2.38-2.62-4.98-5.22-4-2.81,1.06-1.24,3.96-.47,5.99,2.58,6.88,4.58,13.92,4.66,21.27.11,11.37-3.32,21.95-8.03,32.18-2.56,5.56-4.04,6.18-8.19,2.01-10.8-10.84-22.78-20.3-34.37-30.21-4.68-4-9.63-7.7-14.61-11.32-2.19-1.59-5.46-2.5-7.11-.2-1.82,2.53,1.53,3.64,3.19,4.87,8.65,6.44,17.01,13.24,25.12,20.34,7.77,6.81,15.47,13.62,22.71,21.11,10.09,10.43,21.12,19.98,30.78,30.89,2.43,2.74,1.79,3.83-1.48,4.77-11.84,3.39-23.66,6.61-35.97,8.21-17.69,2.3-35.22,2.57-52.74-.96-1.65-.33-3.21-.4-4.74.43-.86.47-1.92.82-2.06,1.89-.16,1.24,1.12,1.4,1.88,1.93,2.31,1.6,5.04,1.01,7.57,1.46,18.29,3.28,36.51,1.88,54.72-.73,12.24-1.76,24.15-4.77,35.66-9.29,2.05-.8,2.97-.06,4.44,1.36,5.64,5.4,9.32,12.3,14.34,18.21,7.92,9.31,14.24,19.88,20.76,30.25,2.62,4.16,5.13,8.39,7.68,12.58Zm-15.72,27.75c4.88.2,14.05-.63,23.19-2.08,1.45-.23,3.36-.21,2.99-2.23-.3-1.65-1.61-2.51-3.71-2.09-3.47.69-7.03,1.27-10.56,1.36-19.16.51-38.24.22-56.81-5.58-4.36-1.36-8.39-3.44-12.69-4.85-1.84-.61-4.56-1.09-5.43,1.62-.81,2.51,1.65,2.63,3.22,3.32,17.66,7.78,36.28,10.42,59.79,10.53Z"/>
      <path class="cls-4" d="m461.02,955.9c-8.34-25.98-12.09-52.8-14.69-79.84-1.56-16.26-1.38-32.55-.82-48.82,1.15-33.51,7.37-66.15,16.73-98.33,2.65-9.11,6.25-17.85,9.08-26.88,3.03-9.69,8.31-18.68,12.75-27.91,5.6-11.63,12.04-22.77,18.68-33.87,9.97-16.65,21.15-32.33,33.67-47.05,6.05-7.11,11.75-14.6,18.09-21.31,4.86-5.14,10.56-9.86,15.76-14.84,15.01-14.34,31.54-26.79,48.54-38.47,15.94-10.95,32.95-20.32,50.5-28.63,32.56-15.41,66.61-26.04,102.06-32.26,24.78-4.35,49.75-6.08,74.88-5.4,43.6,1.17,86.08,8.57,127.08,23.71,32.78,12.1,63.52,28.14,91.88,48.56,21.16,15.24,40.92,32.14,58.82,51.18,17.44,18.55,32.81,38.67,46.6,60.06,5.58,8.65,10.23,17.78,15.23,26.74-.34,1.31-.68,2.63-1.02,3.94-.33.33-.66.65-.98.98-.33.32-.66.65-.98.97-.83.41-1,1.14-.96,1.97-.33.32-.66.65-.98.97-.85.39-1.03,1.11-.99,1.94-2.22.14-2.74,2.17-3.66,3.55-7.85,11.75-10.48,25.12-10.85,38.85-.48,17.68,1.5,35.26,3.66,52.82,2.51,20.45,6.88,40.51,12.05,60.41,2.57,9.88,5.62,19.63,8.46,29.43-.88.69-.52,1.24.19,1.76l-.07-.09c.35.35.71.7,1.06,1.05l-.07-.06c.17,1.27.14,2.61.56,3.79,4.28,12.22,8.66,24.4,12.97,36.61,5.1,14.45,10,28.96,13.84,43.8-3.55,11.49-6.83,23.06-11.45,34.19l-1.4,5.62c-2.57,2.3-2.21,5.81-3.51,8.66-8.73,18.99-17.17,38.03-28.76,55.65-6.11,9.29-12,18.76-18.45,27.84-2.55,3.06-5.05,6.17-6.82,9.77-3.67,3.12-7.23,6.7-10,10.33-3.36,4.39-7.05,8.61-10.51,12.88-9.58,11.84-21.32,21.67-32.63,31.82-15.7,14.08-33.05,25.98-50.8,37.32-16.42,10.48-34.2,18.34-51.61,26.92-5.42,2.09-10.83,4.24-16.28,6.26-40.12,14.85-81.48,23.44-124.33,24.4-.81-.3-1.56-.26-2.21.37-9.45.38-18.87-.02-28.32-.37-22.85-.84-45.37-3.91-67.7-8.69-23.78-5.09-46.74-12.78-69.26-21.89-26.24-11.64-51.3-25.34-74.64-42.13-31.51-22.68-59.2-49.29-82.88-80.07-.59-.77-1.25-1.49-1.88-2.23-1.89-2.56-3.78-5.11-5.66-7.67-4.17-6.19-8.42-12.33-12.5-18.58-14.88-22.76-26.38-47.22-36.6-72.34-.02-.32-.09-.64-.22-.94-.22-.37-.43-.75-.65-1.12,0,0,.04-.05.04-.06-1.72-7.07-4.28-13.86-6.87-20.64-.39-1.54-.77-3.08-1.16-4.62Zm712.13-91.87c.09-.11.27-.23.26-.33-.02-.27-.12-.53-.19-.8.19-3.2.39-6.4.58-9.6,0-.36,0-.73.01-1.09.02-2.57.04-5.15.06-7.72,0-.68,0-1.36,0-2.05.16-3.92.3-7.84-.31-11.73.24-.3.22-.59-.05-.87-.12-1.64-.24-3.28-.35-4.92.09-.1.26-.22.24-.3-.05-.24-.18-.46-.27-.69-.36-5.31-.52-10.65-1.11-15.94-2.47-22.22-6.87-44.08-13.84-65.32-24.23-73.76-68.38-132.63-132.5-176.5-29.99-20.52-62.72-35.27-97.48-45.28-23.63-6.81-48.01-10.39-72.61-11.59-17.75-.87-35.48-.42-53.21,1.49-62.51,6.73-118.67,29.27-168.69,67.21-7.65,5.8-15.38,11.47-22.15,18.41-6.43,6.59-13.43,12.6-19.59,19.49-9.85,11-19.51,22.15-28,34.27-10.87,15.51-20.6,31.66-28.79,48.74-26.75,55.76-37.14,114.5-31.94,176.04,3.01,35.66,11.65,70.03,25.9,102.77,20.66,47.46,50.56,88.38,90.09,121.98,53.79,45.72,115.79,72.28,186.14,79.3,31.14,3.11,62.05,1.87,92.79-3.88,77.54-14.48,142.18-51.65,194.04-110.92,10.85-12.4,20.88-25.46,29.62-39.61,15.6-25.26,28.28-51.73,37.04-80.04,8.12-26.22,13.37-53,14.31-80.52Z"/>
      <path class="cls-3" d="m1350.17,1163.23c.12,4,2.09,7.46,3.7,10.9,1.49,3.19.14,3.83-2.38,4.57-9.78,2.89-19.79,2.18-29.77,2.11-6.18-2.19-12.79-2.3-19.07-4.02-.7-7.78-1.98-15.53-1.2-23.39,1.73-1.25,3.72-.97,5.65-.93,10.21.21,20.39-.06,30.47-1.96,1.27-.24,2.92-.04,2.55-1.99-.31-1.62-1.02-2.93-3.32-2.53-12.03,2.08-24.19,1.7-36.33,1.61-.3-5.32-.64-10.64-.93-15.95-.95-16.84-2.49-33.58-4.85-50.28-.28-1.99-1.59-4.92,1.55-6.38,13.05,16.16,23.95,33.77,34.61,51.61-.67-10.52-6.15-19.85-5.65-30.79-2.7,3.91-4.16,2.39-5.84-.07-5.94-8.67-11.52-17.62-18.76-25.33,2.6-2.69,5.2-5.37,7.8-8.06,5.74-5.92,12.25-11.29,17.02-17.91,5.04-7,11.44-12.69,17.47-18.37,15.86-14.94,19.01-32.04,12.02-50.03-4.24-10.92-9.01-21.74-14.21-32.27-4.74-9.61-8.95-19.49-13.26-29.25-4.83-10.96-9.93-21.82-14.57-32.88-2.98-7.11-6.25-14.1-8.69-21.43-.65-9.98-2.12-19.91-2.97-29.81-.9-10.63-2.34-21.23-2.99-31.9-.37-6.11-.6-5.99,5.65-6.77,10.06-1.25,20.2-3.02,29.35-7.14,13.23-5.97,26.2-12.58,37.86-21.6,20.21-15.64,36.74-34.42,50.19-56.03.87-1.4,1.49-2.81,1.57-4.54.37-8.79-5.41-17.26-13.93-20.26.12-1.44.24-2.88.36-4.31l.33-.12-.3-.17c.63-4.49.08-8.97-.09-13.45.6-.14.52-.56.29-.91-.08-.12-.45-.05-.69-.06-2.61,5.38-4.22,11.03-4.47,17.03-4.07,4.63-8.8,8.54-13.46,12.53-8.28,7.1-15.99,15-24.87,21.23-13.03,9.14-26.3,18.13-40.92,24.68-9.47,4.25-19.28,7.54-29.9,7.24-1.8-.05-3.47.17-3.8-2.5-.8-6.4-1.89-12.77-2.87-19.15.44-17.34-2.21-34.03-10.92-49.3-5.31-9.32-11.94-17.45-22.32-21.61.11-3.61,2.87-2.32,4.7-2.43,11.56-.68,20.56-5.26,25.46-16.29,2.67-6.01,3.72-12.39,4.04-18.87.4-8.23-1.02-16.38-1.86-25.17,4.92,3.08,10.12,4.02,15.02,5.81,7.26,2.66,14.52,5.48,21.46,8.87,7.13,3.48,14.86,5.31,21.98,8.64,6.59,3.09,13.62,5,20.21,7.89,8.11,3.56,16.69,5.97,24.4,10.54,7.33,4.34,15.41,7.08,23.71,9.07-.35.88-.77,1.74-1.03,2.65-.37,1.27-1.29,3.08-.78,3.75,1.2,1.59,2.5-.37,3.78-.72,2.2-.6,4.38-1.09,6.7-1.08,11.98.07,20.25,6.61,25.45,20.46,1.1-3.2,2.12-6.15,3.13-9.1.24,2.11,1.98,3.06,3.5,3.77,17.47,8.17,33.93,18.07,50.1,28.53,12.72,8.23,24.4,17.74,35.41,28.04,10.09,9.44,18.91,19.9,26.39,31.72,10.71,16.94,16.2,35.38,17.72,54.95,1.64,21.1-2.52,41.65-9.24,61.59-2.94,8.72-6.67,17.16-10.46,25.6-7.57,16.82-17.79,31.95-28.68,46.55-7.71,10.34-16.01,20.44-25.78,29.09-1.12.99-2.04,2.12-2.16,3.7-27.24-15.84-56.36-18.47-86.69-12.47,1.59.29,3.25.55,4.82.25,13.2-2.48,26.23.27,39.07,2.19,14.58,2.17,27.46,8.88,39.53,17.8,12.62,9.33,22.81,20.06,28.01,34.89,4.31,12.29,2.51,24.37-.62,36.96-4.63,18.62-14.54,34.15-25.51,49.05-8.82,11.97-17.88,24.15-31.09,32.07-4.13,8.51-13.01,11.9-19.74,17.39-11.19,9.14-23.97,16.25-37.31,22.13-1.49.66-3.82.61-4.13,3.04-6.48,3.35-13.75,3.22-20.67,4.63-3.61.74-7.31,1.3-11.11,1.15-2.84-.11-4.02-1.2-3.46-3.83,1.4-6.48,1.97-13.12,3.76-19.54.67-2.42,1.85-3.17,4.09-3.13,14.49.26,28.42-3.56,42.09-7.38,10.18-2.85,19.26-9.12,28.3-14.83,1.4-.88,2.64-2.29,1.28-4.07-1.33-1.75-3.06-.94-4.36.01-6.44,4.75-13.38,8.65-20.73,11.72-14.15,5.9-28.88,9.58-44.22,10.67-3.29.23-4.77-.28-3.58-4.28,5.36-18.01,10.98-35.85,19.15-52.89,3.27-6.83,6.22-13.86,9.6-20.67,1.07-2.16,2.57-2.51,4.76-2.24,19.43,2.41,38.64,1.18,57.89-2.46,7.9-1.49,14.98-4.54,22.29-7.34,1.77-.68,4.51-1,3.55-3.57-.96-2.58-3.75-1.83-5.43-.74-5.6,3.64-11.92,5.11-18.27,6.45-8.83,1.86-17.64,4.55-26.67,4.42-8.89-.13-17.76.52-26.64.2-2.34-.08-5.02-.03-6.1-2.21-1.07-2.16.79-4.1,2.01-6.05,5.56-8.93,10.38-18.37,16.53-26.86,4.99-6.9,9.92-13.89,15.08-20.69,6.55-8.65,13.64-16.79,20.57-25.09.81-.98,1.08-2.03.27-3.11-.77-1.03-1.95-1.32-3.07-.94-1.86.64-3.21,1.98-4.57,3.44-10.22,11.06-18.74,23.47-27.82,35.42-2.15,2.82-5,5.08-6.4,8.54-.86,2.14-2.47,2.29-4.06.32-10.43-12.92-17.12-27.05-14.51-44.24.36-2.39,1.14-4.89-.4-7.04-.63-.88-2.23-.77-3.23-.24-2.73,1.44-2.67,4.12-2.84,6.77-.81,12.2.53,23.94,6.69,34.81,3.04,5.36,6.12,10.69,10.64,14.93,2.06,1.93,2.23,3.5.72,5.85-9.4,14.61-17.81,29.79-24.98,45.62-2.65,5.86-5.25,11.75-7.64,17.71-1.09,2.73-1.52,2.81-4.33,1.15-11.34-6.72-19.61-16.15-26.6-27.08-3.58-5.6-5.39-11.76-7.1-17.99-.65-2.35-.3-5.54-3.98-4.49-3.29.93-2.27,3.97-1.64,6.2,2.82,10.1,7.4,19.22,14.22,27.39,6.84,8.19,14.76,14.97,23.55,20.82,2.44,1.62,3.11,3.18,2.05,6.05-6.71,18.13-11.43,36.81-15.36,55.72-1.41,6.78-1.37,6.38-8.35,4.48-3.4-.92-5.57-2.73-7.8-5.07-2.46-2.58-5.18-4.91-7.79-7.35-.26-.32.43-1.31-.71-1.03.24.34.48.67.73,1.01Z"/>
      <path class="cls-3" d="m851.53,1236.87c42.85-.96,84.21-9.55,124.33-24.4,5.45-2.02,10.85-4.17,16.28-6.26.93,1.27,2.3,1.06,3.57,1.01,20.17-.69,40.29,1.1,60.45,1.08,13.31-.01,26.62.18,39.94.57,21.27.63,42.57.93,63.86,1.23,9.25,7.43,18.66,14.39,30.42,17.76,12.03,3.45,22.02-4.2,20.63-16.53,4.97.24,9.91.85,14.91.86,8.05.02,16.1-.53,24.17.7,3.25.49,7.06,1.46,10.25-1,1.79.62,3.4,1.11,1.71,3.63-1.52,2.28-2.77,4.8-3.73,7.37-4.26,11.36-1.31,19.13,9.37,25.1,4.29,2.4,8.92,3.88,13.62,5.23,11.23,3.23,22.69,3.37,34.22,2.7,9.33-.54,18.16-2.89,26.18-7.72,5.16-3.11,8.29-7.73,8.62-13.93.39-7.17-3.57-11.77-10.69-11.49-6.72.26-13.25-.81-19.75-1.94-4.77-.83-9.79-1.51-13.87-4.66,6.17-1.64,12.48-1.35,18.71-.82,2.39.2,4.8.68,7.24.64,17.56-.28,35.05,1.48,52.57,2.15,16.84.65,33.67,1.87,50.5,2.87,20.69,1.23,41.35,3.03,61.99,4.87,15.3,1.36,30.62,2.77,45.83,4.92,14.39,2.04,28.96,3.54,42.8,8.49,1.37.49,2.77.96,4.06,1.64,3.97,2.08,4.11,4.88.28,7.2-5.96,3.61-12.75,4.82-19.44,5.92-15.16,2.49-30.35,4.8-45.58,6.72-11.4,1.43-22.89,2.15-34.34,3.15-14.67,1.28-29.35,2.53-44.02,3.79-5.82.5-11.64.07-17.5.89-7.36,1.03-14.89.82-22.35,1.19-20.74,1.03-41.47,2.33-62.23,3.18-11.32.46-22.68,1.15-34.01,1.56-23.55.86-47.08,2.1-70.66,2.4-10.04.13-20.19-.17-30.19.81-14.64,1.44-29.32-.12-43.89,1.06-10.91.88-21.82-.08-32.65.89-18.22,1.63-36.48-.17-54.65,1.01-22.63,1.47-45.25.17-67.86.87-67.76,2.1-135.54.5-203.31.9-42.13.25-84.28.7-126.4-.22-28.66-.63-57.33.18-85.94-.98-13.34-.54-26.71.24-39.98-.9-13.19-1.13-26.39.16-39.49-.99-12.7-1.12-25.38-.19-38.04-.85-22.57-1.16-45.15-1.47-67.73-2.08-16.71-.45-33.42-1.29-50.13-1.93-14.43-.55-28.85-1.28-43.28-1.93-18.14-.81-36.26-2.06-54.39-2.99-14.71-.75-29.42-1.98-44.14-2.86-10-.59-19.95-2.2-29.95-2.8-17.39-1.04-34.7-2.84-51.96-5.05-15.7-2.01-31.46-4.05-46.66-8.86-.92-.29-1.81-.75-2.66-1.22-1.82-1-4.26-1.78-3.8-4.43.4-2.34,2.68-3.11,4.69-3.82,16.58-5.8,33.92-7.8,51.21-9.87,18.13-2.18,36.28-4.54,54.49-5.66,11.74-.72,23.38-2.38,35.24-2.5,17.61-.16,35.19-2.35,52.8-3.56,6.14-.42,12.29-.32,18.47-.85,11.15-.97,22.4-.71,33.59-1.22,5.64-.26,11.25-1.19,16.89-1.61,4.13-.31,8.31-.05,12.43-.05,12.21,0,24.38-.85,36.54-1.4,19.64-.88,39.3-1.25,58.93-2.06,11.22-.46,22.47.15,33.63-.82,13.82-1.2,27.69.05,41.44-1.05,14.66-1.18,29.31.11,43.9-.89,22.95-1.57,45.92.06,68.83-1.09,11.72-.59,23.4-.42,35.1-.75,1.13-.03,2.3.12,3.12-.94,22.51,9.11,45.47,16.8,69.26,21.89,22.32,4.78,44.85,7.84,67.7,8.69,9.45.35,18.87.75,28.32.37.81.31,1.55.19,2.21-.37Z"/>
      <path class="cls-5" d="m1010.99,92.62c-8.53,2.26-16.95,4.84-24.91,8.74-10.86,5.33-21.42,11.12-31.45,17.97-9.4,6.42-18.18,13.54-26.03,21.69-14.62,15.17-28.64,30.92-43.37,45.97-10.02,10.24-21.82,18.5-34.79,24.47-8.27,3.8-17.26,6.43-26.34,8.04-22.26,3.96-44.33,3.26-65.91-3.91-14.58-4.84-28.34-11.5-41.5-19.48-10.36-6.28-21.1-11.94-31.54-18.08-10.4-6.12-20.77-12.28-31.72-17.4-1.73-.81-3.68-1.14-5.53-1.69-.83-1.39-1.71-2.75-2.49-4.16-19.44-35.35-58.61-53.68-98.09-46.08-17.78,3.42-32.84,11.9-46.16,23.84-1.03-.48-1.99-.61-3.22-.47-5.42.64-10.88,1-16.33,1.46-1.98-13.52-6.21-26.16-13.44-37.9-4.44-7.22-9.22-14.15-15.53-19.68-5.31-4.65-9.43-10.93-16.65-13.27-.62-.2-.98-1.21-1.46-1.84-.06-.2-.07-.41-.04-.63,5.39,1.25,10.68-.24,15.76-1.34,8.59-1.86,17.31-2.55,25.95-3.37,15.49-1.49,31.04-2.66,46.66-2.24,14.11.38,28.04,2.4,42.05,3.68,14.13,1.29,27.71,4.91,41.19,8.61,15.67,4.31,30.75,10.58,45.56,17.46,18.7,8.69,36.56,18.94,54.22,29.45,14.91,8.88,29.93,17.48,45.63,24.77,12.79,5.94,26.36,9.91,40.41,11.92,14.27,2.03,28.45,1.12,42.63-1.08,20.43-3.16,38.68-11.53,55.15-23.62,12.05-8.84,22.13-19.92,32.08-31.09,12.48-14.02,24.74-28.3,39.11-40.48,17.41-14.76,36.71-26.31,57.99-34.85,19.04-7.65,38.92-11.54,58.87-15.38,4.1-.79,8.4-.64,12.58-.92,7.59-.52,15.28-1.26,22.83-1.01,19.72.64,39.37,1.97,58.93,5.28,17.44,2.95,34.72,6.55,51.62,11.47,17.79,5.18,35.48,10.73,52.74,17.75,15.39,6.26,30.72,12.66,45.94,19.29,5.53,2.41,11.33,4.56,16.29,8.21-.89,2.08-1.73,4.18-2.69,6.23-4.04,8.63-5.21,17.78-4.04,27.08.38,3.01-.12,4.53-2.58,5.81-7.6,3.94-13.63,10-20.38,15.09-.77,0-1.47.17-1.87.93-1.54-1.64-3.05-3.32-4.62-4.93-18.77-19.16-40.44-34.15-64.98-44.96-25.72-11.32-52.71-17.28-80.74-18.45-15.78-.66-31.5.24-47.14,2.78-25.02,4.06-48.79,11.7-71.22,23.6-9.5,5.04-18.19,11.35-27.45,16.73Z"/>
      <path class="cls-6" d="m559.85,289.62c-3.41.11-3.06,2.55-3.06,4.85.02,15.47,0,30.94,0,46.41,0,19.05.01,38.1,0,57.16,0,8.68-4.51,13.18-13.19,13.18-69.71,0-139.42,0-209.13.04-1.87,0-3.93-.74-5.59.86-5.53.09-10.97-1.66-16.53-.75-4.89-.05-9.78-.07-14.66-.16-7.11-.14-10.64-3.69-11.02-10.76-1.2-22.63-.22-45.28-.55-67.91-.05-3.75-.14-7.49-.21-11.24.03-15.97.07-31.94.1-47.91.04-13.35.07-26.71.12-40.06.03-9.59,4.08-13.66,13.63-13.67,51.8-.04,103.61-.07,155.41-.1,2.77.02,5.55.26,8.3.02,4.11-.36,8.39,1.27,12.34-1.01.18.26.47.5.54.79,4.38,19.55,13.94,35.91,29.54,48.72,2.77,2.28,6.32,3.86,7.99,7.39-9.83,8.88-20.36,16.6-32.08,23.03-17.94,9.83-36.95,15.14-57.16,15.71-23.16.65-44.83-5.59-65.23-16.43-.35-.27-.69-.54-1.04-.81-2.26-1.41-4.53-2.83-6.79-4.24-1.39-1.57-3.11-2.66-5-3.5-2.63-2.02-5.26-4.04-7.89-6.05-.28-.39-.48-.87-.84-1.17-12.14-10.08-22.46-21.81-31.79-34.51-1.54-2.1-.97-5.71-4.46-6.39-.35-.38-.57-1.31-1.26-.32l1.31.25c-.26,1.5.14,2.86.71,4.25,4.29,10.42,9.69,20.23,16.53,29.16,3.8,4.96,6.96,10.59,12.7,13.79l.11.11c.6,2.53,2.35,3.74,4.78,4.16.07.47.14.94.21,1.41,1.35,1.93,2.93,3.62,5.08,4.69.6.46,1.2.92,1.8,1.37.34.28.68.56,1.02.84.67.62,1.33,1.25,2,1.87,1.99,3.93,6.23,4.25,9.6,5.99h.07c.34.34.68.69,1.02,1.04,1.99,2.31,4.95,3.06,7.42,4.6,2.35,1.47,3.34,2.39.18,4.15-17.47,9.75-31.92,22.98-43.96,38.87-5.73,7.56-10.94,15.47-15.24,24.5,2.59-.49,3.09-2.2,4-3.47,14.82-20.61,33.29-36.91,56.36-47.83,4.13-1.96,8.89-2.34,12.77-4.36,4.29-2.24,7.93-2.58,12.46-1.38,20.73,5.51,41.49,5.34,62.12-.62,2.31-.67,4.35-.66,6.63.04,29.26,8.95,52.2,26.62,70.6,50.72,2.53,3.31,4.07,7.42,7.74,9.84.05.42.11.84.16,1.26.17-.08.34-.15.5-.23-.24-.33-.48-.65-.73-.98-.31-.92-.5-1.89-.93-2.74-11.08-21.85-26.06-40.45-45.96-54.89-5.33-3.87-10.98-7.3-17.03-11.3,10.31-5.38,19.28-11.79,27.61-19.07,6.59-5.76,12.85-11.84,17.5-19.37,8.97,4.98,18.39,8.48,28.42,10.98,4.15,1.03,8.18-.81,11.94,1.15Z"/>
      <path class="cls-1" d="m1211.01,1211.34c1.39,12.33-8.6,19.98-20.63,16.53-11.76-3.37-21.17-10.33-30.42-17.76-1.34-1.41-2.68-2.83-4.03-4.23-8.51-8.9-16.17-18.39-19.39-30.6-2.3-8.72.43-15.2,7.99-20.15,4.29-2.81,9.02-4.46,13.98-5.55,1.04-.23,2.83.07,2.66-1.44-.41-3.51,2.43-4.77,4.2-6.69,5.73-6.23,11.63-12.3,17.47-18.43,1.93-1.64,3.8-3.35,5.02-5.63,14.51-13.86,28.13-28.58,41.87-43.18,2.5-1.38,3.73-3.97,5.65-5.9,2.65-2.63,5.26-5.29,7.96-7.87,1.21-1.15,1.42-2.45,1.13-3.99-2.96-15.64-5.58-31.35-9.7-46.75-.6-4-1.1-8.02-2.9-11.72-3.33-17.91-8.36-35.38-13.77-52.74-3.84-14.85-8.73-29.36-13.84-43.8-4.31-12.21-8.69-24.39-12.97-36.61-.42-1.18-.38-2.52-.56-3.79,38.98,17.68,79.86.04,96.01-36.94,2.91,3.53,4.4,7.75,5.95,11.96,3.09,8.4,6.16,16.81,11.49,24.15,2.45,7.33,5.71,14.32,8.69,21.43,4.64,11.06,9.74,21.92,14.57,32.88,4.3,9.77,8.51,19.64,13.26,29.25,5.2,10.53,9.97,21.35,14.21,32.27,6.99,17.99,3.85,35.09-12.02,50.03-6.03,5.68-12.43,11.37-17.47,18.37-4.77,6.62-11.28,11.99-17.02,17.91-2.6,2.68-5.2,5.37-7.8,8.06-1.67,1.32-3.26,2.71-4.35,4.58-3.13,1.46-1.83,4.39-1.55,6.38,2.36,16.69,3.9,33.44,4.85,50.28.3,5.3.64,10.63.93,15.95-.68,2.1.34,3.92.98,5.8-.77,7.86.5,15.61,1.2,23.39,0,1.09.02,2.18.03,3.27.04.9.08,1.8.12,2.7-.1.12-.29.26-.27.36.06.28.21.54.32.8.16,6.6.34,13.2.46,19.8.1,5.27.07,5.27-4.15,8.23,2.18,1.71,4.17,3.51,6.86,4.26,4.08,3.15,9.1,3.83,13.87,4.66,6.5,1.13,13.03,2.2,19.75,1.94,7.12-.27,11.07,4.32,10.69,11.49-.33,6.2-3.46,10.82-8.62,13.93-8.02,4.83-16.85,7.18-26.18,7.72-11.53.67-22.99.53-34.22-2.7-4.7-1.35-9.34-2.83-13.62-5.23-10.68-5.97-13.62-13.74-9.37-25.1.96-2.57,2.21-5.1,3.73-7.37,1.69-2.52.08-3-1.71-3.63-1.4-5.5-1.26-11.11-1.13-16.7.23-9.64-.99-19.21-1.34-28.82.07-2.07.56-4.18-.43-6.18-.5-6.15-1.01-12.29-1.51-18.44l-.44-4.19c.07-.09.21-.22.19-.26-.09-.19-.23-.35-.36-.53v.02c.05-6.24-1.28-12.26-2.57-19.17-9.34,9.35-18.13,18.16-26.93,26.97-2.24.84-3.42,2.85-4.92,4.5-8.78,8.46-17.62,16.86-26.31,25.42-2.41,2.38-4.6,4.48-8.35,2.21,1.7,7.76,5.53,14.26,12.44,21.49,4.15,4.34,8.8,8.2,12.33,13.11Zm75.06-197.32c5.86-5.4,11.72-10.95,17.77-16.28,2.4-2.11,2.47-3.91,1.03-6.65-8.83-16.79-17.49-33.66-26.19-50.52-3.57-6.91-7.09-13.84-10.63-20.76,6.68,31.6,12.67,63.21,18.02,94.21Z"/>
      <path class="cls-5" d="m1508.43,970.87c.12-1.58,1.04-2.71,2.16-3.7,9.77-8.65,18.06-18.76,25.78-29.09,10.89-14.6,21.12-29.72,28.68-46.55,3.8-8.44,7.53-16.88,10.46-25.6,6.72-19.94,10.88-40.49,9.24-61.59-1.52-19.57-7.01-38.01-17.72-54.95-7.47-11.83-16.3-22.28-26.39-31.72-11.01-10.31-22.69-19.81-35.41-28.04-16.17-10.46-32.63-20.37-50.1-28.53-1.53-.71-3.26-1.66-3.5-3.77-.32-5.07,1.44-10.07,2.84-14.5,2.68-8.51,4.31-17.24,6.75-25.77,1.67-5.84-.45-8.01-6.42-8.35-8.63-.49-17.15,1.29-25.74.96-4.45-.17-6.49,1.78-7.55,5.84-2.25,8.65-4.74,17.25-7.13,25.86-8.3-1.99-16.38-4.73-23.71-9.07-7.71-4.56-16.29-6.98-24.4-10.54-6.59-2.89-13.61-4.8-20.21-7.89-7.12-3.34-14.85-5.16-21.98-8.64-6.94-3.39-14.19-6.21-21.46-8.87-4.89-1.79-10.1-2.73-15.02-5.81.84,8.8,2.26,16.94,1.86,25.17-.32,6.48-1.36,12.86-4.04,18.87-4.91,11.03-13.91,15.62-25.46,16.29-1.83.11-4.6-1.17-4.7,2.43-.92,2.24-1.77,4.52-2.76,6.73-3.29,7.34-10.59,10.98-18.44,9.24-6.47-1.43-11.77-8.28-11.95-15.44-.06-2.6-.13-5.19-.2-7.79.22-3.19.27-6.36.89-9.56.73-3.77.49-7.66-1.76-11.18-1.1-1.72-2.26-3.58-1.87-5.85,2.5.41,3.1-1.26,3.34-3.16.31-2.42.49-4.85.72-7.28,2.46-25.86,18-30.01,35.84-28.18,8.95.92,17.79,2.86,26.85,2.62,12.16-.32,17.57-5.11,20.49-16.94.98-4,.29-7.5-.1-11.33-2.75-26.63-30.96-37.17-51-27.36-7.91,3.87-13.92,10.08-17.49,18.38-1.62,3.75-3.67,7.24-6.91,9.88-4.36-3.24-6.89-8.16-9.72-12.43-3.01-4.54-1.14-10.75-.86-16.22.31-6.06,4.96-9.51,8.83-13.25,9.6-9.28,21.06-15.32,33.9-18.84,4.57,8.33,11.54,14.36,19.1,19.79,15.42,11.09,32.59,19.01,49.7,26.98,15.37,7.16,31.34,12.92,46.98,19.44,22.23,9.26,44.8,17.62,67.01,26.94,18.92,7.94,37.71,16.13,56.2,24.98,11.65,5.58,23.14,11.56,34.38,17.93,15.35,8.71,30.49,17.94,44.31,28.89,17.16,13.61,33.1,28.49,45.36,47.11,10.41,15.82,17.21,32.86,20.12,51.3,2.41,15.25,1.81,30.67-.84,46.02-2.97,17.17-7.94,33.75-14.85,49.62-5.22,11.99-11.2,23.7-18.32,34.78-10.82,16.83-22.86,32.75-36.69,47.15-14.36,14.96-29.41,29.28-47,40.56-2.05,1.32-3.2,3.73-5.61,4.62-4.78-2.51-8.09-7.2-13.34-9.02-.32-.28-.65-.57-.97-.85-.09-.22-.15-.45-.19-.69Zm-263.91-339.92c5.11,14.58,15.71,14.31,25.39,10.05.65-.29,1.5-1.13,1.49-1.7-.03-1.31-1.31-1.21-2.24-1.16-8.68.51-16.47-2.28-24.63-7.19Z"/>
      <path class="cls-6" d="m1309.01,116.93c6.75-5.09,12.78-11.16,20.38-15.09,2.46-1.28,2.96-2.79,2.58-5.81-1.17-9.3,0-18.45,4.04-27.08.96-2.05,1.79-4.16,2.69-6.23,6.27-8.27,13.38-15.68,23.26-19.51,25.17-9.76,53.4-1.62,66.06,24.73,1.74,3.62,2.91,3.7,6.3,2.26,12.48-5.33,25.47-8.83,39.13-9.41.8.32,1.49.17,2.07-.47,23.59-.41,45.91,4.31,66.37,16.51,13,7.76,24.33,17.47,33.51,29.51,2.07,2.72,3.9,2.99,7.01,2.31,34.95-7.6,65.69.5,90.84,26.17,15.39,15.71,23.61,35.02,25.4,57.24,3.89,48.27-29.61,91.07-77.62,99.52-11.96,2.11-23.98,1.31-35.92-.72-3.23-.99-6.52-1.8-9.65-3.04-2.28-.9-3.49-.21-4.89,1.56-14.16,17.85-33.06,27.58-55.05,31.95-3.92-.46-7.78.71-11.64.56-17.55-.66-34-5.02-48.51-15.32-2.15-1.52-3.95-.89-5.86.24-28.76,17.2-59.35,20.45-91.49,12.06-7.27-1.9-14.15-4.76-20.94-7.92-2.6-1.21-5.06-1.81-6.9,2.07-6,12.66-14.74,23.54-23.96,33.93-2.78,3.13-1.93,4.72.03,7.11,4.21,5.15,8.55,10.19,12.53,15.52,8.03,10.74,16.72,20.93,25.93,30.63,14.87,15.68,30.16,30.95,45.19,46.48,3.64,3.76,6.84,7.88,7.26,13.44-2.87,9.92-6.48,12.07-16.68,9.75-4.24-.96-8.43-2.12-12.65-3.19-13.64-6.12-27.46-11.8-40.98-18.2-25.7-12.16-50.68-25.71-76.03-38.52-3.62-1.83-7.4-3.51-10.65-5.88-4.48-3.27-9.01-2.92-13.17-.43-4.95,2.97-10.57,3.56-15.74,5.68-13.54,5.56-27.92,7.71-42.28,9.77-27.51,3.94-54.8,2.41-81.9-3.48-23.53-5.12-45.45-14.19-65.97-26.77-30.55-18.72-54.03-44.09-70.09-75.99-9.95-19.76-15.31-40.9-16.66-63.16-2.78-45.73,11.55-85.63,39.76-121.12,10.18-12.81,21.96-23.93,34.88-33.91.76-.59,1.37-1.38,2.05-2.08,9.27-5.38,17.95-11.69,27.45-16.73,22.43-11.9,46.2-19.54,71.22-23.6,15.63-2.54,31.35-3.43,47.14-2.78,28.03,1.17,55.02,7.13,80.74,18.45,24.54,10.8,46.21,25.79,64.98,44.96,1.57,1.61,3.08,3.28,4.62,4.93,13.03,16.05,24.41,32.9,32.06,52.47,7.16,18.33,11.04,37.04,11.75,56.41.87,23.79-3.26,46.87-12.76,68.83-1.73,4-2.13,6.83,2.58,9.33,2.47,1.32,5.06,2.04,7.56,3.03,34.87,13.79,68.73,11.18,101.45-6.88,2.05-1.13,3.45-1.57,5.13.05,3.75,3.61,8.53,5.31,13.2,7.28,9.7,4.09,19.81,6.68,30.29,6.79,26.47.27,48.34-9.9,65.32-30.24,1.87-2.24,3.26-2.83,6.09-1.88,13.83,4.66,28.03,5.38,42.4,3.16,48.75-7.52,82.44-55.31,73.24-103.84-9.64-50.82-59.34-82.76-109.58-70.21-3.53.88-5.29.01-7.32-2.6-5.51-7.08-11.58-13.66-18.82-19.03-36.07-26.79-74.93-31.68-116.49-14.61-2.31.95-3.34.79-4.48-1.56-10.39-21.46-29.13-31.35-52.64-27.92-24.36,3.55-43.35,29.27-39.16,53.41.53,3.04-.34,4.38-2.68,5.85-5.63,3.55-11.46,6.93-16.51,11.21-3.45,2.92-5.81,2.55-8.73.03Zm64.08,333.7c-1.11-1.16-2.19-2.35-3.33-3.48-30.1-29.41-57.91-60.81-82.86-94.73-1.72-2.34-2.09-3.7.19-6.07,11.89-12.35,22.44-25.67,30.59-40.91,20.1-37.54,24.88-76.81,12.51-117.5-13.84-45.51-44.24-77.51-85.69-99.33-42.38-22.31-87.61-28.5-134.57-20.45-53.13,9.1-97.42,33.85-130.15,77.4-19.16,25.49-29.98,54.28-31.5,86.26-1.39,29.28,5.6,56.56,19.68,82.29,6.88,12.57,15.19,24.02,25.42,33.76,13.26,12.61,27.21,24.39,43.81,32.93,16.16,8.32,32.71,15,50.34,19.34,13.9,3.42,27.9,5.26,42.2,5.31,14.92.05,29.88.54,44.61-2.27,18.97-3.61,37.49-8.84,54.98-17.23,3.36-1.61,6.17-2.12,9.64.32,3.39,2.38,7.2,4.31,10.87,6.31,11.31,6.16,22.81,11.96,34.33,17.71,15.27,7.63,30.58,15.16,45.94,22.59,13.89,6.71,27.91,13.17,43.01,17.75Z"/>
      <path class="cls-5" d="m312.36,411.37c5.56-.91,11.01.84,16.53.75,1.56.64,1.91,2.03,2.34,3.47,4.33,14.3,6.09,28.72,2.54,43.49-5.52,22.94-18.74,39.96-38.85,52.14-14.09,8.54-29.23,14.39-44.71,19.67-18.71,6.38-37.72,12.14-55.85,19.9-15.64,6.7-31.02,14.26-44.99,24.49-9.07,6.64-18.05,13.32-25.74,21.41-12.75,13.4-24.64,27.65-33.06,44.21-9.02,17.72-16.42,36.01-21.21,55.58-5.34,21.8-6.06,43.68-5.14,65.68.46,10.97,2.12,22,5.22,32.83,2.6,9.1,4.83,18.33,8.21,27.18,4.05,10.63,8.92,20.86,14.54,30.85,6.3,11.18,13.73,21.36,21.76,31.23.48.59.59,1.47.88,2.21-4.87-1.57-7.72-5.87-11.19-9.05-12.89-11.84-24.98-24.53-34.9-39.07-9.87-14.47-18.33-29.81-24.69-46.06-6.58-16.82-10.67-34.43-13.55-52.36-2.52-15.73-2.35-31.51-1.51-47.17,1.05-19.5,4.63-38.67,10.91-57.42,3.41-10.19,7.27-20.2,11.9-29.7,5.18-10.62,11.16-21.05,18.28-30.65,7.74-10.43,15.68-20.73,25.36-29.42,13.87-12.45,28.51-23.81,45.19-32.54,18.44-9.64,37.57-17.33,57.29-23.82,16.04-5.28,31.98-10.91,47.78-16.89,18.8-7.12,36.36-16.44,50.24-31.49,6.96-7.54,12.11-16.25,16.19-25.61.48-1.11.17-2.57.23-3.87Z"/>
      <path class="cls-3" d="m1397.11,460.13c-.42-5.56-3.62-9.69-7.26-13.44-15.03-15.53-30.32-30.81-45.19-46.48-9.21-9.7-17.9-19.89-25.93-30.63-3.98-5.32-8.32-10.37-12.53-15.52-1.96-2.39-2.8-3.98-.03-7.11,9.22-10.39,17.96-21.27,23.96-33.93,1.84-3.88,4.3-3.28,6.9-2.07,6.8,3.16,13.67,6.03,20.94,7.92,32.14,8.39,62.73,5.14,91.49-12.06,1.9-1.14,3.71-1.77,5.86-.24,14.52,10.3,30.97,14.66,48.51,15.32,3.86.14,7.72-1.02,11.63-.56,2.27,7.22,4.97,14.34,6.71,21.68,2.6,10.93,2.37,22.02.15,33.05-6.15,21.49-19.83,37.05-38.28,48.97-17.4,11.24-36.3,19.22-55.81,25.81-10.25,3.46-20.75,6.22-31.13,9.3Z"/>
      <path class="cls-4" d="m513.88,275.47c-1.66-3.52-5.22-5.11-7.99-7.39-15.6-12.81-25.16-29.17-29.54-48.72-.06-.29-.35-.53-.54-.79-2-8.37-2.26-16.89-2.26-25.44.88-13.03,4.66-25.28,9.99-37.11,5.19-8.33,10.77-16.37,17.62-23.47,13.32-11.95,28.38-20.42,46.16-23.84,39.48-7.6,78.65,10.73,98.09,46.08.78,1.42,1.66,2.78,2.49,4.16,3.69,9.78,7.33,19.58,7.99,30.17.03.44.07.89.1,1.33,3.68,35.22-15.54,70.72-47.13,88.07-15.39,8.45-31.71,11.67-49.01,11.11-3.77-1.96-7.79-.12-11.94-1.15-10.03-2.5-19.45-6-28.42-10.98-1.79-.91-3.35-2.42-5.61-2.02Zm84.74-102.85c-.14-.42-.29-.85-.43-1.27-.67-3.32-3.04-4.32-6.06-4.53-5.42-.38-10.61-.37-11.64,6.94-13.38-10.97-31.2-10.42-41.68,1.21-12.02,13.35-12.93,34.05.07,48.32,5.02,5.51,11.42,8.49,18.92,9.03,10.15.73,18.86-2.02,25.2-10.98,2.97,6.03,7.26,9.51,13.25,10.69,11.03,2.18,21.81-2.48,26.64-12.69,8.99-19,7.35-37.83-3.84-55.35-11.14-17.43-28.39-24.78-48.4-26.07-39.89-2.57-67.72,22.97-68.78,57.19-1,1.63-.96,3.26-.04,4.9.41,15.43,5.22,29.3,16.29,40.19,19.77,19.46,43.64,21.99,69.34,15.37,5.04-1.3,7.24-4.56,6.08-8.33-1.22-3.96-4.5-5.38-9.55-3.86-7.25,2.19-14.63,2.96-22.19,2.73-21.87-.65-39.9-15.34-44.12-36.06-4.96-24.34,4.86-45.78,25.49-55.19,10.69-4.88,21.97-5.8,33.47-3.77,30.58,5.39,43.49,30.98,36.61,59.09-1.43,5.85-4.87,8.42-9.11,7.64-5.48-1.02-5.28-5.41-5.31-9.53-.09-11.89-.13-23.78-.19-35.67Z"/>
      <path class="cls-3" d="m469.88,983.27c10.22,25.12,21.72,49.58,36.6,72.34,4.08,6.25,8.33,12.39,12.5,18.58-2.72,7.6-7.77,13.83-12.19,20.4-9.38,13.95-21.14,25.84-33.34,37.28-13.07,12.26-27.56,22.61-43,31.72-5.69,3.35-12.29,4.98-17.34,9.45,0,0,.04-.03.04-.03-1.09.06-2.26-.15-2.98,1,0,0,.05-.03.05-.03-1.04.15-2.24-.14-2.94,1.01-9.27,2.98-18.7,4.95-28.49,4.86-2.87-.03-4.02-.98-3.33-4.24,1.36-6.49,2.19-13.07,4.19-19.44.58-1.85,1.19-2.71,3.22-2.76,18.23-.43,35.59-4.75,52.36-11.73,6.36-2.65,11.98-6.5,17.7-10.21,1.18-.77,2.8-1.87,1.86-3.49-1.01-1.73-2.98-1.17-4.37-.42-3.28,1.78-6.38,3.88-9.62,5.74-14.53,8.4-30.31,13.02-46.85,15.21-2.88.38-5.69,1.15-8.68,1.1-3.36-.05-3.97-1.61-3.2-4.32,3.3-11.52,6.89-22.96,11.15-34.16,4.9-12.87,10.48-25.44,16.66-37.77,2.05-4.09,4.52-4.56,8-3.83,7.2,1.5,14.55.99,21.8,1.48,6.85.46,13.88-.77,20.76-1.76,12.72-1.83,25.21-4.63,36.9-10.24,1.02-.49,3.05-.29,2.45-2.28-.5-1.65-2.19-1.02-3.4-1.07-3.91-.15-7.09,2.24-10.54,3.46-21.13,7.48-42.98,7.96-64.95,7.16-6.34-.23-6.89-1.53-3.41-7.36,7.24-12.12,14.6-24.17,22.74-35.73,8.78-12.47,18.23-24.41,28.15-35.98,1.04-1.21,1.54-2.44,1.49-3.97Z"/>
      <path class="cls-6" d="m136.64,14.83c-8.45-3.25-16.94-5.64-26.05-5.58-24.21.15-44.95,15.09-53.66,37.66-5.95,15.41-3.99,29.9,2.62,44.24,1.41,3.05,1.02,4.2-1.82,5.98-26.39,16.56-42.16,40.1-45.77,71.27-3.21,27.69,4.67,52.06,22.59,73.3.37.44.61,1,1.61,2.69-5.95-3.47-9.58-7.57-13.05-11.67C9.6,216.74,1.49,198.49.22,177.38c-2.32-38.63,13.46-68,45.51-89.01,2.89-1.89,3.9-3.2,2.19-6.82C31.73,47.27,51.9,7.57,89.35.98c17.59-3.1,33.92,1.09,47.3,13.85Z"/>
      <path class="cls-6" d="m196.96,946.15c17.56-5.75,35.47-9.35,54.05-8.8.8.02,1.59,0,2.43.39-8.18.69-16.27,1.81-24.29,3.49-23.85,4.98-45.11,14.93-63.26,31.49-8.87,8.1-16.09,17.42-21.78,27.77-10.92,19.84-12.62,40.4-3.09,61.5,6.21,13.75,14.54,26.01,24.68,37.09,16.56,18.12,35.7,33.14,56.65,45.75,25.76,15.51,53.05,27.55,82.7,33.62,3.75.77,7.74.38,11.23,2.38-23.19-.19-44.87-6.86-65.98-15.64-34.94-14.53-66.27-34.65-92.78-61.8-12.81-13.11-23.45-27.81-30.06-45.17-8.69-22.8-5.28-43.86,8-64,15.16-22.98,35.96-38.49,61.5-48.06Z"/>
      <path class="cls-5" d="m1522.34,376.06c2.22-11.03,2.45-22.12-.15-33.05-1.75-7.34-4.44-14.46-6.71-21.68,22-4.37,40.9-14.1,55.05-31.95,1.41-1.77,2.61-2.46,4.89-1.56,3.13,1.24,6.43,2.05,9.65,3.04-2.63.42-2.09,2.47-2.11,4.18-.19,16.4-4.61,31.58-13.93,45.05-6.5,9.38-15,17.04-24.53,23.23-7.13,4.63-13.88,10.06-22.16,12.74Z"/>
      <path class="cls-6" d="m1508.43,970.87c.04.24.11.47.19.69.32.28.65.57.97.85,5.25,1.82,8.56,6.51,13.34,9.02,6.73,7.05,13.68,13.94,17.87,22.97,7.1,15.33,6.15,30.94,1.42,46.62-6.22,20.63-17.79,38.26-31.48,54.53-18.35,21.82-39.66,40.31-64.38,54.67-9.99,5.8-20.31,10.99-31.59,13.95.31-2.43,2.64-2.38,4.13-3.04,13.34-5.88,26.12-12.99,37.31-22.13,6.73-5.5,15.6-8.89,19.74-17.39,13.21-7.92,22.26-20.09,31.09-32.07,10.97-14.89,20.88-30.42,25.51-49.05,3.13-12.6,4.93-24.68.62-36.96-5.2-14.83-15.4-25.57-28.01-34.89-12.07-8.92-24.95-15.62-39.53-17.8-12.85-1.92-25.87-4.66-39.07-2.19-1.56.29-3.23.04-4.82-.25,30.33-6,59.45-3.37,86.69,12.47Z"/>
      <path class="cls-6" d="m304.85,32.98c-9.55-4.71-19.25-9.1-29.53-12.1-39.07-11.39-75.92-6.3-110.47,15.08-3.2,1.98-4.59,2.48-6.91-1.24-5.26-8.41-5.46-8.08,3.51-12.96,24.7-13.43,51.23-17.89,78.85-15.11,23.89,2.41,45.53,11.34,64.54,26.32Z"/>
      <path class="cls-6" d="m430.43,58.42c-7.49-3.93-14.73-7.49-22.49-9.73-23.96-6.92-47.57-5.94-70.62,3.62-3.92,1.63-6.34,1.9-9.72-1.3-6.76-6.43-7.06-6.21,1.75-9.32,14.39-5.08,29.12-7.92,44.47-6.17,19.25,2.19,37.51,7.24,53.39,18.9,1.19.87,3.1,1.19,3.22,4Z"/>
      <path class="cls-6" d="m413.12,1173.04c5.05-4.47,11.65-6.1,17.34-9.45,15.44-9.11,29.93-19.46,43-31.72,12.2-11.44,23.96-23.33,33.34-37.28,4.42-6.57,9.46-12.8,12.19-20.4,1.89,2.56,3.78,5.11,5.66,7.67-6.1,7.57-11.18,15.89-17.49,23.33-21.06,24.83-45.44,45.47-74.63,60.22-6.25,3.16-12.46,6.3-19.41,7.64Z"/>
      <path class="cls-3" d="m286.02,273.39c-.03,15.97-.07,31.94-.1,47.91-4.25-1.01-4.04-5.25-5.18-8.05-3.96-9.68-6.51-19.84-8.29-30.17-.58-3.35-.27-6.11,3.93-6.72,3.36-.49,6.12-2.98,9.65-2.97Z"/>
      <path class="cls-3" d="m473.54,193.13c0,8.55.27,17.07,2.26,25.44-3.95,2.27-8.23.64-12.34,1.01-2.74.24-5.53,0-8.3-.02,6.93-7.8,13.69-15.7,17.12-25.82.1-.31.82-.41,1.25-.6Z"/>
      <path class="cls-3" d="m501.15,132.55c-6.84,7.1-12.42,15.14-17.62,23.47-1.25-1.03-1.51-2.56-1.32-3.91.89-6.24.26-12.4-.61-18.57,5.45-.46,10.9-.82,16.33-1.46,1.23-.14,2.19-.01,3.22.47Z"/>
      <path class="cls-6" d="m1302.68,1180.05c0-1.09-.02-2.18-.03-3.27,6.28,1.72,12.9,1.83,19.07,4.02-6.38.56-12.69-.81-19.05-.75Z"/>
      <path class="cls-6" d="m434.49,60.22c-.04.21-.02.42.04.63-.88-.55-1.76-1.11-2.9-1.83,1.82-.74,2.23.45,2.87,1.2Z"/>
      <path class="cls-6" d="m410.18,1174.02c.72-1.16,1.89-.94,2.98-1-.73,1.11-1.9.92-2.98,1Z"/>
      <path class="cls-6" d="m407.29,1175c.7-1.15,1.89-.86,2.94-1.01-.75,1.01-1.91.81-2.94,1.01Z"/>
      <path class="cls-3" d="m1475.51,60.32c-.58.64-1.27.79-2.07.47.69-.16,1.38-.31,2.07-.47Z"/>
      <path class="cls-6" d="m1302.85,1183.9c-.11-.27-.26-.52-.32-.8-.02-.09.17-.24.27-.36.1.26.24.52.29.79.02.1-.15.24-.24.36Z"/>
      <path class="cls-3" d="m469.01,981.21c.22.37.43.75.65,1.12-.22-.37-.43-.75-.65-1.12Z"/>
      <path class="cls-6" d="m286.21,560.79c22.95,1.42,43.65,8.41,61.4,23.74,12.63,10.9,21.91,24.01,27.41,39.53,2.05,5.79,5.69,11.66,3.51,18.67-.54,1.73,1.32,4.31,1.54,6.79,2.32,26.76-4.57,50.54-22.3,70.98-16.83,19.41-37.93,30.55-63.53,33.11-27.66,2.77-51.87-5.16-73.02-23.07-10.59-8.97-18.55-19.76-24.25-32.37-14.4-31.86-12.07-62.87,6-92.28,15.3-24.91,38.54-39.01,67.2-43.84,5.18-.87,10.59-1.84,16.04-1.25Zm-1.73,8.68c-45.5-1.59-89.3,38.53-88.61,88.43.68,48.98,40.62,88.22,88.99,88.14,46.5-.08,88.07-38.11,88.17-88.38.1-49.66-41.2-89.29-88.55-88.2Z"/>
      <path class="cls-1" d="m1230.93,556.07c3.23-2.64,5.29-6.13,6.91-9.88,3.58-8.29,9.58-14.51,17.49-18.38,20.04-9.81,48.25.73,51,27.36.4,3.83,1.09,7.33.1,11.33-2.92,11.84-8.33,16.62-20.49,16.94-9.07.24-17.91-1.7-26.85-2.62-17.84-1.83-33.38,2.32-35.84,28.18-.23,2.43-.42,4.86-.72,7.28-.24,1.91-.85,3.57-3.34,3.16-6.45-5.19-8.24-12.92-10.23-20.22-2.72-9.95-3.22-19.97,3.18-29.21,1.99-2.88,5.05-3.76,7.66-5.44,3.95-2.55,8.27-4.55,11.14-8.5Z"/>
      <path class="cls-6" d="m1221.93,646.02c.07,2.6.13,5.19.2,7.79.18,7.16,5.48,14.01,11.95,15.44,7.84,1.73,15.15-1.91,18.44-9.24.99-2.21,1.85-4.48,2.76-6.73,10.38,4.16,17.01,12.29,22.32,21.61,8.71,15.27,11.35,31.96,10.92,49.3-1.64,5.28-1.42,10.79-1.91,16.19-.3,3.28-.91,4.88-4.73,3.56-8.68-3-15.7-8.21-21.73-15-8.82-9.93-14.64-21.68-20.63-33.36-4.45-8.67-8.82-17.43-14.65-25.26-5.69-7.65-12.41-13.73-23.14-12.77-4.42.4-7.73,3.21-11.79,4.22-.12-.12-.24-.25-.35-.37,7.65-8.14,17.37-12.28,28.08-14.49,1.42-.29,2.84-.59,4.26-.89Z"/>
      <path class="cls-2" d="m325.91,1124.83c-2.56-4.2-5.07-8.42-7.68-12.58-6.51-10.36-12.84-20.94-20.76-30.25-5.02-5.9-8.69-12.8-14.34-18.21-1.48-1.42-2.4-2.16-4.44-1.36-11.51,4.52-23.43,7.53-35.66,9.29-18.21,2.61-36.43,4.01-54.72.73-2.53-.45-5.26.14-7.57-1.46-.76-.53-2.03-.69-1.88-1.93.13-1.07,1.2-1.42,2.06-1.89,1.53-.83,3.1-.77,4.74-.43,17.52,3.54,35.05,3.26,52.74.96,12.31-1.6,24.13-4.82,35.97-8.21,3.27-.94,3.9-2.02,1.48-4.77-9.66-10.92-20.69-20.47-30.78-30.89-7.24-7.49-14.94-14.3-22.71-21.11-8.1-7.11-16.46-13.91-25.12-20.34-1.66-1.23-5.01-2.35-3.19-4.87,1.65-2.3,4.92-1.39,7.11.2,4.98,3.62,9.93,7.32,14.61,11.32,11.6,9.91,23.58,19.37,34.37,30.21,4.16,4.17,5.64,3.55,8.19-2.01,4.71-10.23,8.14-20.81,8.03-32.18-.07-7.35-2.08-14.39-4.66-21.27-.76-2.04-2.34-4.94.47-5.99,2.6-.98,4.12,1.62,5.22,4,8.08,17.48,6.99,34.89-.29,52.27-.88,2.1-1.67,4.24-2.71,6.26-4.17,8.07-4.07,7.93,2.26,14.72,17.6,18.9,34.23,38.6,48.58,60.14,1.06,1.59,1.46,4.39,5.04,2.4,2.46-1.37,2.17,2.13,1.63,2.83-2.06,2.68-.53,4.56.54,6.95,2.43,5.41,3.33,11.27,3.45,17.46Z"/>
      <path class="cls-2" d="m310.19,1152.58c-23.51-.11-42.13-2.75-59.79-10.53-1.57-.69-4.02-.82-3.22-3.32.87-2.71,3.58-2.23,5.43-1.62,4.29,1.41,8.32,3.49,12.69,4.85,18.57,5.8,37.65,6.09,56.81,5.58,3.53-.09,7.08-.67,10.56-1.36,2.1-.42,3.41.45,3.71,2.09.37,2.02-1.54,2-2.99,2.23-9.14,1.45-18.31,2.28-23.19,2.08Z"/>
      <path class="cls-6" d="m461.02,955.9c.39,1.54.77,3.08,1.16,4.62-14.85-2.64-29.77-3.87-44.82-1.68,9.01-2.89,25.03-4.08,34.43-3.02,3.04.34,6.15.08,9.23.09Z"/>
      <path class="cls-6" d="m1184.86,666.47c.34-1.31.68-2.63,1.02-3.94,1.24-.38,2.47-.75,3.71-1.13.12.12.23.25.35.37-.76,2.57-3.29,3.23-5.07,4.7Z"/>
      <path class="cls-6" d="m655.99,190.44c-.03-.44-.07-.89-.1-1.33.45.41.51.85.1,1.33Z"/>
      <path class="cls-2" d="m1173.15,824.92c.12,1.64.24,3.28.35,4.92-.05.09-.17.2-.15.28.03.2.13.39.2.59.62,3.9.47,7.81.31,11.73-.62.12-1.34.24-1.33,1.03,0,.78.72.9,1.34,1.02-.02,2.57-.04,5.15-.06,7.72-.37.18-.74.36-1.11.54.37.19.73.37,1.1.56-.19,3.2-.39,6.4-.58,9.6-.02.38-.04.75-.07,1.13-.94,27.52-6.19,54.3-14.31,80.52-8.77,28.31-21.44,54.78-37.04,80.04-8.75,14.16-18.77,27.21-29.62,39.61-51.86,59.27-116.5,96.44-194.04,110.92-30.74,5.74-61.65,6.98-92.79,3.88-70.35-7.02-132.35-33.58-186.14-79.3-39.53-33.6-69.43-74.53-90.09-121.98-14.25-32.74-22.89-67.11-25.9-102.77-5.2-61.55,5.19-120.28,31.94-176.04,8.19-17.08,17.93-33.24,28.79-48.74,8.49-12.12,18.14-23.26,28-34.27,6.17-6.88,13.17-12.9,19.59-19.49,6.77-6.94,14.5-12.61,22.15-18.41,50.02-37.94,106.18-60.47,168.69-67.21,17.72-1.91,35.46-2.35,53.21-1.49,24.6,1.2,48.98,4.78,72.61,11.59,34.76,10.01,67.49,24.77,97.48,45.28,64.13,43.87,108.28,102.74,132.5,176.5,6.98,21.25,11.37,43.1,13.84,65.32.59,5.29.75,10.62,1.11,15.94.01.33.02.66.03.99Zm-301.54,327.56c55-1.01,130.63-33.15,191.2-97.8,63.74-68.03,90.35-149.95,81.32-242.26-6.8-69.52-34.48-130.87-83.92-181.01-69.13-70.11-153.15-101.78-251.47-93.04-72.28,6.43-135.11,35.24-186.6,86.22-60.99,60.39-92.28,134.16-92.52,220.35-.48,169.6,138.76,308.56,342.01,307.53Z"/>
      <path class="cls-6" d="m1286.73,824.08c-16.16,36.98-57.03,54.62-96.01,36.94,0,0,.07.06.07.06-.35-.35-.71-.7-1.06-1.05,0,0,.07.09.07.09-.06-.59-.13-1.17-.19-1.76-2.83-9.81-5.89-19.56-8.46-29.43-5.17-19.9-9.54-39.95-12.05-60.41-2.15-17.56-4.14-35.13-3.66-52.82.37-13.73,3-27.1,10.85-38.85.93-1.39,1.45-3.41,3.66-3.55,0,0,.02.02.02.02-6.45,17.72-.86,33.75,7.01,49.43,4.61,9.18,10.44,17.56,17.09,25.38,17.56,20.64,38.38,36.64,65.4,42.22,8.46,1.75,12.99,3.77,13.04,13.35.04,6.8,2.7,13.59,4.2,20.39Z"/>
      <path class="cls-2" d="m1182.83,1123.01c-5.83,6.13-11.73,12.21-17.47,18.44-1.76,1.91-4.61,3.18-4.2,6.69.18,1.5-1.62,1.21-2.66,1.44-4.96,1.1-9.69,2.74-13.98,5.55-7.56,4.95-10.29,11.43-7.99,20.15,3.22,12.21,10.88,21.7,19.39,30.6,1.35,1.41,2.69,2.82,4.03,4.23-21.29-.3-42.59-.6-63.86-1.23-13.32-.39-26.64-.59-39.94-.57-20.16.02-40.28-1.77-60.45-1.08-1.27.04-2.65.26-3.57-1.01,17.41-8.57,35.19-16.43,51.61-26.92,17.75-11.33,35.11-23.24,50.8-37.32,11.31-10.15,23.05-19.98,32.63-31.82,3.46-4.27,7.15-8.48,10.51-12.88,2.77-3.63,6.33-7.2,10-10.33,9.88,13.81,22.34,25.1,35.14,36.06Z"/>
      <path class="cls-3" d="m1234.76,1009.7c4.12,15.4,6.73,31.11,9.7,46.75.29,1.54.08,2.83-1.13,3.99-2.7,2.58-5.31,5.24-7.96,7.87-2.23.35-4.46.94-6.7,1.01-13.29.39-26.55.03-39.64-2.66-2.46-.51-5.19-.26-5.58,2.36-.39,2.63,2.52,2.9,4.56,3.21,13.83,2.06,27.75,2.31,41.7,1.98-13.74,14.6-27.36,29.32-41.87,43.18-7.18-7.4-15.24-13.98-21.53-22.22-4.36-5.7-10.16-10.48-11.8-17.98,6.46-9.08,12.34-18.55,18.45-27.84,11.59-17.61,20.03-36.66,28.76-55.65,1.31-2.85.95-6.35,3.52-8.65.6.75,1.09,1.64,1.82,2.23,9.21,7.5,18.46,14.96,27.7,22.43Z"/>
      <path class="cls-3" d="m1218.08,945.23c5.41,17.37,10.44,34.84,13.77,52.74-1.67.06-2.54-1.22-3.68-2.13-7.06-5.63-13.84-11.63-21.54-16.42,4.62-11.13,7.9-22.71,11.45-34.19Z"/>
      <path class="cls-6" d="m1154.51,1077.18c1.64,7.49,7.44,12.28,11.8,17.98,6.3,8.24,14.35,14.82,21.53,22.22-1.22,2.28-3.08,3.99-5.02,5.63-12.8-10.96-25.26-22.25-35.14-36.06,1.77-3.61,4.27-6.71,6.82-9.77Z"/>
      <path class="cls-5" d="m1206.64,979.42c7.7,4.79,14.48,10.79,21.54,16.42,1.13.9,2.01,2.18,3.68,2.13,1.8,3.7,2.3,7.73,2.9,11.72-9.24-7.47-18.49-14.93-27.7-22.43-.73-.59-1.22-1.48-1.82-2.23.47-1.87.93-3.75,1.4-5.62Z"/>
      <path class="cls-3" d="m1173.87,844.49c-.62-.12-1.34-.24-1.34-1.02,0-.78.71-.91,1.33-1.03,0,.68,0,1.36,0,2.05Z"/>
      <path class="cls-6" d="m851.53,1236.87c-.66.57-1.4.68-2.21.37.65-.63,1.4-.67,2.21-.37Z"/>
      <path class="cls-1" d="m1189.6,858.37c.06.59.13,1.17.19,1.76-.71-.52-1.08-1.07-.19-1.76Z"/>
      <path class="cls-3" d="m1173.79,853.3l-1.1-.56c.37-.18.74-.36,1.11-.54,0,.36,0,.73-.01,1.09Z"/>
      <path class="cls-6" d="m1179.96,673.3c-.04-.84.15-1.56.99-1.94h0c-.02.81-.17,1.55-.97,1.97l-.02-.02Z"/>
      <path class="cls-6" d="m1181.93,670.39c-.04-.83.13-1.57.96-1.97,0,0,.02.02.02.02-.01.81-.21,1.53-.99,1.94h0Z"/>
      <path class="cls-3" d="m1173.15,864.03c.02-.38.04-.75.07-1.13.07.27.17.53.19.8,0,.1-.17.22-.26.33Z"/>
      <path class="cls-6" d="m1183.88,667.44c.33-.32.66-.65.98-.98-.32.33-.65.65-.97.98h0Z"/>
      <path class="cls-6" d="m1182.9,668.41c.33-.32.66-.65.98-.97h0c-.32.33-.65.66-.97.99,0,0-.02-.02-.02-.02Z"/>
      <path class="cls-6" d="m1180.95,671.36c.33-.32.66-.65.98-.97,0,0,0,0,0,0l-.97.98s0,0,0,0Z"/>
      <path class="cls-3" d="m1173.15,824.92c-.01-.33-.02-.66-.03-.99.1.23.22.45.27.69.02.08-.15.2-.24.3Z"/>
      <path class="cls-3" d="m1173.55,830.71c-.07-.2-.16-.39-.2-.59-.01-.08.1-.19.15-.28.27.28.28.57.04.87Z"/>
      <path class="cls-1" d="m1189.73,860.04c.35.35.71.7,1.06,1.05-.35-.35-.71-.7-1.06-1.05Z"/>
      <path class="cls-4" d="m1180.95,671.36l.97-.98c.79-.42.98-1.13.99-1.94.32-.33.65-.66.97-.98.32-.33.65-.65.97-.98,1.78-1.47,4.31-2.13,5.07-4.7,4.06-1.01,7.37-3.83,11.8-4.22,10.73-.96,17.45,5.12,23.14,12.77,5.83,7.83,10.2,16.6,14.65,25.26,5.99,11.67,11.8,23.43,20.63,33.36,6.03,6.79,13.05,12.01,21.73,15,3.82,1.32,4.43-.28,4.73-3.56.49-5.41.27-10.92,1.91-16.19.97,6.38,2.07,12.75,2.87,19.15.33,2.67,2,2.45,3.8,2.5,10.63.31,20.43-2.99,29.9-7.24,14.62-6.56,27.88-15.54,40.92-24.68,8.88-6.23,16.59-14.13,24.87-21.23,4.66-4,9.39-7.91,13.46-12.54,1.52.67,3.05,1.33,4.57,2,8.52,3,14.3,11.47,13.93,20.26-.07,1.72-.69,3.14-1.57,4.54-13.45,21.61-29.98,40.39-50.19,56.03-11.66,9.03-24.63,15.64-37.86,21.6-9.14,4.12-19.29,5.9-29.35,7.14-6.25.77-6.02.65-5.65,6.77.64,10.66,2.08,21.27,2.99,31.9.84,9.9,2.32,19.83,2.97,29.81-5.33-7.34-8.4-15.75-11.49-24.15-1.55-4.21-3.04-8.44-5.95-11.96-1.49-6.79-4.16-13.58-4.2-20.39-.05-9.58-4.58-11.6-13.04-13.35-27.02-5.58-47.84-21.58-65.4-42.22-6.65-7.81-12.47-16.2-17.09-25.38-7.88-15.68-13.46-31.71-7.01-49.43.8-.42.95-1.16.97-1.96Z"/>
      <path class="cls-1" d="m1414.39,641.35c2.39-8.62,4.88-17.21,7.13-25.86,1.06-4.05,3.1-6.01,7.55-5.84,8.59.33,17.11-1.45,25.74-.96,5.97.34,8.09,2.52,6.42,8.35-2.44,8.53-4.06,17.26-6.75,25.77-1.4,4.43-3.16,9.44-2.84,14.5-1.01,2.95-2.03,5.9-3.13,9.11-5.2-13.85-13.47-20.4-25.45-20.46-2.31-.01-4.5.48-6.7,1.08-1.28.35-2.58,2.31-3.78.72-.51-.68.41-2.49.78-3.75.26-.91.68-1.77,1.03-2.65Zm20.6-21.19c-.33-2.48-1.62-4.09-4.05-4.14-2.4-.05-4.08,1.38-4.17,3.82-.09,2.66,1.53,4.33,4.19,4.31,2.44-.02,3.66-1.75,4.04-3.99Z"/>
      <path class="cls-2" d="m1296.23,1075c1.09-1.87,2.68-3.26,4.35-4.58,7.25,7.71,12.83,16.65,18.76,25.33,1.68,2.46,3.14,3.98,5.84.07-.5,10.94,4.98,20.27,5.65,30.79-10.66-17.84-21.56-35.45-34.61-51.61Z"/>
      <path class="cls-2" d="m1301.45,1153.39c-.64-1.88-1.66-3.69-.98-5.8,12.14.09,24.3.47,36.33-1.61,2.3-.4,3.02.91,3.32,2.53.37,1.94-1.28,1.75-2.55,1.99-10.08,1.9-20.25,2.17-30.47,1.96-1.93-.04-3.92-.31-5.65.93Z"/>
      <path class="cls-1" d="m1408.9,682.16c-1.52-.67-3.05-1.34-4.57-2,.25-6,1.86-11.64,4.47-17.03-.08.14-.25.35-.21.4.17.22.4.39.61.57.18,4.48.72,8.97.1,13.45,0,0-.03.29-.03.29-.12,1.44-.24,2.88-.36,4.31Z"/>
      <path class="cls-6" d="m1409.2,664.1c-.21-.19-.44-.36-.61-.57-.04-.05.13-.26.21-.4.24.02.61-.06.69.06.23.35.31.77-.29.91Z"/>
      <path class="cls-2" d="m1350.17,1163.23c-.24-.34-.48-.67-.73-1.01,1.14-.28.45.7.71,1.03,0,0,.02-.02.02-.02Z"/>
      <polygon class="cls-6" points="1409.27 677.84 1409.3 677.55 1409.6 677.72 1409.27 677.84"/>
      <path class="cls-2" d="m1257.86,1166.39c.36,9.61,1.57,19.17,1.34,28.82-.13,5.59-.27,11.21,1.13,16.7-3.19,2.46-7,1.49-10.25,1-8.07-1.23-16.12-.68-24.17-.7-5.01-.01-9.94-.62-14.91-.86-3.54-4.91-8.19-8.77-12.33-13.11-6.91-7.24-10.74-13.73-12.44-21.49,3.75,2.27,5.94.17,8.35-2.21,8.68-8.56,17.52-16.96,26.3-25.42,1.58.82,3.17,1.62,4.75,2.45,10.47,5.54,20.91,11.13,32.22,14.84Z"/>
      <path class="cls-2" d="m1309.01,116.93c2.92,2.52,5.28,2.89,8.73-.03,5.05-4.28,10.88-7.65,16.51-11.21,2.34-1.48,3.21-2.81,2.68-5.85-4.18-24.14,14.8-49.86,39.16-53.41,23.51-3.42,42.25,6.46,52.64,27.92,1.14,2.35,2.17,2.5,4.48,1.56,41.56-17.06,80.42-12.17,116.49,14.61,7.24,5.37,13.31,11.96,18.82,19.03,2.03,2.61,3.78,3.48,7.32,2.6,50.24-12.54,99.94,19.39,109.58,70.21,9.2,48.52-24.49,96.31-73.24,103.84-14.37,2.22-28.57,1.5-42.4-3.16-2.83-.95-4.21-.37-6.09,1.88-16.97,20.35-38.85,30.51-65.32,30.24-10.48-.11-20.59-2.7-30.29-6.79-4.67-1.97-9.44-3.67-13.2-7.28-1.69-1.62-3.08-1.19-5.13-.05-32.72,18.05-66.57,20.67-101.45,6.88-2.49-.98-5.08-1.71-7.56-3.03-4.71-2.51-4.32-5.33-2.58-9.33,9.5-21.95,13.63-45.04,12.76-68.83-.71-19.38-4.58-38.09-11.75-56.41-7.65-19.57-19.02-36.42-32.06-52.47.4-.75,1.1-.92,1.87-.93Z"/>
      <path class="cls-2" d="m513.88,275.47c2.26-.4,3.82,1.11,5.61,2.02-4.65,7.53-10.91,13.61-17.5,19.37-8.33,7.28-17.3,13.69-27.61,19.07,6.05,4,11.7,7.43,17.03,11.3,19.9,14.44,34.88,33.04,45.96,54.89.43.85.63,1.82.93,2.74l.06-.05c-3.67-2.42-5.21-6.53-7.74-9.84-18.39-24.09-41.34-41.76-70.6-50.72-2.27-.7-4.32-.7-6.63-.04-20.64,5.96-41.39,6.13-62.12.62-4.53-1.2-8.17-.86-12.46,1.38-3.87,2.02-8.63,2.4-12.77,4.36-23.07,10.92-41.53,27.22-56.36,47.83-.91,1.27-1.41,2.97-4,3.47,4.31-9.03,9.52-16.94,15.24-24.5,12.04-15.89,26.49-29.11,43.96-38.87,3.16-1.76,2.17-2.69-.18-4.15-2.47-1.54-5.44-2.29-7.42-4.61-.34-.35-.68-.7-1.02-1.05,0,0-.07,0-.06,0,.02-.95.09-1.91.05-2.85-.07-1.81-2.63-1.88-2.65-3.72-.01-1.13,2.9-1.13,1.31-2.73-1.59-1.6-2.52,1.46-3.52,1.08-2.61-1-3.13,1.68-4.78,2.24-.67-.62-1.33-1.25-2-1.87-.1-.45-.21-.9-.31-1.35-.24.17-.47.34-.71.51-.6-.46-1.2-.92-1.8-1.37-.18-3.21-2.51-4.08-5.08-4.69-.07-.47-.14-.94-.21-1.41.81-4.15-1.67-4.52-4.78-4.16,0,0-.11-.11-.11-.11.8-3.87,3.89-4.55,7.08-5.07,2.63,2.02,5.26,4.04,7.89,6.05.34,1.88.68,3.76,1.01,5.64-.87.13-1.96-.29-2.41.85-.07.18.44.83.74.88,1.29.21,1.52-.75,1.67-1.73,1.61-.2,3.05-.69,3.99-2.14,2.26,1.41,4.53,2.83,6.79,4.24.35.27.69.54,1.04.81,20.39,10.84,42.06,17.07,65.23,16.43,20.21-.57,39.22-5.88,57.16-15.71,11.73-6.42,22.25-14.15,32.08-23.03Z"/>
      <path class="cls-5" d="m338.69,283.18c-3.2.52-6.28,1.2-7.08,5.07-5.75-3.2-8.91-8.83-12.71-13.79-6.85-8.94-12.25-18.74-16.53-29.16-.57-1.39-.97-2.75-.71-4.25l-.05.06c3.49.68,2.92,4.29,4.46,6.39,9.33,12.69,19.65,24.42,31.79,34.51.36.3.56.77.84,1.17Z"/>
      <path class="cls-5" d="m346.61,302.71c1.65-.56,2.16-3.24,4.78-2.24,1,.39,1.93-2.67,3.52-1.08,1.6,1.6-1.32,1.6-1.31,2.73.02,1.84,2.58,1.91,2.65,3.72.04.95-.03,1.9-.05,2.85-3.36-1.74-7.61-2.06-9.6-5.99Z"/>
      <path class="cls-5" d="m351.58,292.73c-.94,1.45-2.38,1.94-3.99,2.14h0c-.34-1.88-.68-3.76-1.01-5.64,1.89.84,3.61,1.93,5,3.5Z"/>
      <path class="cls-5" d="m331.72,288.37c3.11-.37,5.59,0,4.78,4.16-2.43-.42-4.18-1.63-4.78-4.16Z"/>
      <path class="cls-5" d="m336.7,293.93c2.57.61,4.9,1.49,5.08,4.69-2.15-1.07-3.73-2.76-5.08-4.69Z"/>
      <path class="cls-2" d="m538.3,384.85c.24.33.48.65.73.98-.17.08-.34.15-.5.23-.05-.42-.11-.84-.16-1.26,0,0-.06.05-.06.05Z"/>
      <path class="cls-5" d="m301.66,241.05l-1.31-.25c.7-.99.91-.06,1.26.32,0,0,.05-.06.05-.06Z"/>
      <path class="cls-5" d="m343.59,300c.24-.17.47-.34.71-.51.1.45.21.9.31,1.35-.34-.28-.68-.56-1.02-.84Z"/>
      <path class="cls-5" d="m356.27,308.69c.34.35.68.7,1.02,1.05-.34-.35-.68-.7-1.02-1.05Z"/>
      <path class="cls-5" d="m359.4,297.78c-.35-.27-.69-.54-1.04-.81.35.27.69.54,1.04.81Z"/>
      <path class="cls-3" d="m1286.07,1014.02c-5.35-31-11.34-62.62-18.02-94.21,3.54,6.92,7.06,13.85,10.63,20.76,8.7,16.86,17.36,33.73,26.19,50.52,1.44,2.75,1.37,4.54-1.03,6.65-6.05,5.33-11.91,10.88-17.77,16.28Z"/>
      <path class="cls-3" d="m1225.81,1144.6c8.8-8.81,17.59-17.62,26.93-26.97,1.29,6.91,2.63,12.94,2.58,19.17-2.26-.12-4.84.2-4.45,2.97.33,2.38,2.82,2.64,5.06,1.99.5,6.15,1.01,12.29,1.51,18.44-1.82,1.17-2.99-.53-4.34-1.09-9.53-4-18.21-9.62-27.28-14.52Z"/>
      <path class="cls-5" d="m1229.71,1074.2c-13.95.34-27.87.09-41.7-1.98-2.04-.31-4.96-.58-4.56-3.21.39-2.62,3.12-2.87,5.58-2.36,13.09,2.69,26.35,3.05,39.64,2.66,2.24-.07,4.46-.66,6.7-1.01-1.92,1.93-3.15,4.52-5.65,5.9Z"/>
      <path class="cls-6" d="m1225.81,1144.6c9.06,4.89,17.74,10.52,27.28,14.52,1.35.57,2.52,2.27,4.34,1.09.99,2,.5,4.1.43,6.18-11.31-3.7-21.75-9.3-32.22-14.84-1.57-.83-3.17-1.63-4.75-2.45,1.5-1.65,2.68-3.66,4.92-4.5Z"/>
      <path class="cls-5" d="m1255.92,1141.77c-2.23.65-4.72.39-5.06-1.99-.39-2.77,2.19-3.09,4.45-2.97,0,0,0-.02,0-.02-.05.29,0,.55.17.79l.44,4.19Z"/>
      <path class="cls-3" d="m1255.48,1137.58c-.16-.24-.22-.5-.17-.79.12.17.27.34.36.52.02.05-.12.17-.19.26Z"/>
      <path class="cls-2" d="m1244.53,630.95c8.17,4.91,15.95,7.7,24.63,7.19.93-.05,2.2-.16,2.24,1.16.01.57-.84,1.41-1.49,1.7-9.68,4.26-20.28,4.54-25.39-10.05Z"/>
      <path class="cls-3" d="m1509.6,972.41c-.32-.28-.65-.57-.97-.85.32.28.65.57.97.85Z"/>
      <path class="cls-2" d="m1373.09,450.63c-15.1-4.58-29.12-11.04-43.01-17.75-15.37-7.42-30.68-14.96-45.94-22.59-11.52-5.76-23.02-11.56-34.33-17.71-3.67-2-7.48-3.93-10.87-6.31-3.47-2.43-6.27-1.93-9.64-.32-17.49,8.38-36.01,13.61-54.98,17.23-14.73,2.8-29.69,2.32-44.61,2.27-14.29-.05-28.29-1.88-42.2-5.31-17.64-4.34-34.18-11.02-50.34-19.34-16.6-8.54-30.55-20.31-43.81-32.93-10.23-9.74-18.53-21.19-25.42-33.76-14.09-25.73-21.08-53.01-19.68-82.29,1.52-31.97,12.35-60.77,31.5-86.26,32.73-43.56,77.02-68.3,130.15-77.4,46.95-8.04,92.19-1.86,134.57,20.45,41.45,21.82,71.85,53.82,85.69,99.33,12.37,40.69,7.59,79.96-12.51,117.5-8.16,15.24-18.7,28.56-30.59,40.91-2.28,2.37-1.91,3.73-.19,6.07,24.95,33.92,52.76,65.32,82.86,94.73,1.15,1.12,2.22,2.32,3.33,3.48Zm-115.3-229.17c.56-.67.51-1.29-.17-1.85-.58-4-.89-8.05-1.77-11.98-6.98-31.18-25.6-52.75-54.6-65.63-5.66-2.51-11.5-4.62-17.64-5.57-4.83-.75-8.69,1.92-9.64,6.22-1.03,4.68,1.35,8.76,6.05,10.24,1.55.49,3.17.74,4.73,1.19,45.35,13.13,65.99,57.51,51.37,98.65-.68,1.92-.7,3.66.29,5.56,1.82,3.48,4.34,5.69,8.45,5.46,4.05-.23,6.48-2.49,7.83-6.25,4.2-11.67,5.14-23.79,5.1-36.05Zm-227.6-47.98c-.42.42-.44.86-.07,1.33-.21,2.27-.56,4.54-.61,6.81-1.02,44.44,9.71,85.63,35.01,122.43,22.38,32.55,51.36,57.37,88.31,72.26,6.32,2.55,12.8,4.78,19.58,5.58,10.77,1.26,20.75-2.11,30.05-6.91,20.8-10.72,25.06-23.41,20.27-42.74-4.38-17.65-15.9-31.02-30.22-41.75-3.89-2.91-8.36-5.23-13.87-5.72-7.55-.67-12.77,3.32-18.43,6.74-4.7,2.84-9.11,6.16-13.79,9.04-3.66,2.26-7.09,2.78-10.78-.78-10.87-10.47-20.31-21.89-27.63-35.19-9.67-17.55-16.85-35.93-20.56-55.63-1.17-6.21-.07-8.02,5.8-10.51,7.49-3.18,15-6.33,22.39-9.73,6.15-2.83,10.5-7.38,10.68-14.5.1-3.94.13-7.93.11-11.88-.1-17.7-7.21-32.55-17.81-45.98-6.35-8.05-14.85-12.15-25.4-12.53-13.04-.46-39.34,14.66-45.06,31.54-4.22,12.43-6.94,25.06-7.99,38.11Zm188.22,56.78c-.21-3.57-.03-7.21-.71-10.69-4.55-23.5-18.63-38.83-40.87-46.98-2.89-1.06-5.81-2.11-8.99-2.12-3.96,0-6.46,2.51-8.08,5.48-1.36,2.5-.44,5.31,1.33,7.74,2.02,2.77,5.03,3.37,8.01,4.21,25.9,7.28,38.82,34.13,29.77,57.19-1.64,4.19.95,9.32,5.32,11.2,3.63,1.56,9.22-.85,10.79-4.94,2.6-6.77,3.78-13.8,3.43-21.09Z"/>
      <path class="cls-2" d="m501.86,195.13c1.06-34.22,28.89-59.76,68.78-57.19,20.01,1.29,37.27,8.63,48.4,26.07,11.19,17.52,12.83,36.35,3.84,55.35-4.83,10.21-15.61,14.87-26.64,12.69-5.99-1.18-10.28-4.66-13.25-10.69-6.34,8.96-15.05,11.71-25.2,10.98-7.5-.54-13.9-3.52-18.92-9.03-13-14.27-12.09-34.97-.07-48.32,10.48-11.64,28.3-12.19,41.68-1.21,1.04-7.31,6.22-7.32,11.64-6.94,3.02.21,5.39,1.22,6.06,4.54.14.42.29.85.43,1.27.06,11.89.11,23.78.19,35.67.03,4.12-.17,8.51,5.31,9.53,4.24.79,7.68-1.79,9.11-7.64,6.88-28.11-6.02-53.7-36.61-59.09-11.5-2.03-22.78-1.11-33.47,3.77-20.62,9.41-30.45,30.86-25.49,55.19,4.22,20.73,22.25,35.41,44.12,36.06,7.56.22,14.94-.55,22.19-2.73,5.05-1.52,8.33-.11,9.55,3.86,1.16,3.77-1.04,7.04-6.08,8.33-25.7,6.61-49.57,4.09-69.34-15.37-11.07-10.9-15.88-24.76-16.29-40.19.01-1.63.02-3.27.04-4.9Zm78.62,3.92c0-11.81-5.53-17.95-16.13-17.91-9.87.03-16.28,7.05-16.29,17.86-.01,9.7,6.84,19.09,14.25,18.62,9.94-.63,19.09-3.66,18.17-18.57Z"/>
      <path class="cls-6" d="m501.86,195.13c-.01,1.63-.02,3.27-.04,4.9-.92-1.64-.96-3.27.04-4.9Z"/>
      <path class="cls-3" d="m598.62,172.63c-.14-.42-.29-.85-.43-1.27.14.42.29.85.43,1.27Z"/>
      <path class="cls-2" d="m284.48,569.47c47.35-1.09,88.65,38.55,88.55,88.2-.1,50.26-41.67,88.3-88.17,88.38-48.36.08-88.31-39.16-88.99-88.14-.69-49.91,43.1-90.02,88.61-88.43Zm-33.31,135.31c5.81.19,10.15-1.84,13.6-6.05,11.35-13.85,23.82-26.43,39.2-35.96,13.99-8.67,28.25-16.6,44.11-21.39,9.75-2.94,14.64-11.53,11.88-20.31-2.68-8.52-11.48-12.54-21.09-9.61-8.58,2.62-16.87,5.96-25,9.74-22.5,10.48-42.47,24.53-59.77,42.33-2.11,2.17-3.18,2.36-5.7.21-4.84-4.13-9.06-8.87-13.83-13.03-2.5-2.18-5.08-4.54-8.69-4.88-7.1-.65-13.46,2.74-16.17,8.61-2.82,6.11-1.66,12.94,3.34,18,9.27,9.39,18.64,18.68,27.99,27.99,2.89,2.87,6.32,4.56,10.11,4.35Z"/>
      <path class="cls-6" d="m871.61,1152.48c-203.25,1.03-342.49-137.93-342.01-307.53.24-86.2,31.53-159.96,92.52-220.35,51.49-50.98,114.33-79.79,186.6-86.22,98.32-8.75,182.34,22.92,251.47,93.04,49.44,50.14,77.12,111.49,83.92,181.01,9.03,92.31-17.58,174.23-81.32,242.26-60.57,64.65-136.19,96.79-191.2,97.8Zm127.53-412.9c-.6-32.77-14.58-70.2-44.36-100.98-42.82-44.28-95.42-58.61-154.8-46.23-31.86,6.64-59.36,23.32-81.16,47.88-27.49,30.97-42.21,67.38-42.35,108.96-.32,93.59,76.33,166.32,174.23,161.01,76.68-4.16,148-68.97,148.43-170.64Zm-137.34,372.84c1.97.44,4.75-.86,7.62-1.07,14.98-1.12,29.62-4.34,43.98-8.29,16.54-4.54,32.58-10.83,48-18.44,43.63-21.54,79.74-51.97,107.99-91.68,1.79-2.51,1.57-3.98,0-6.34-9.17-13.86-20.18-26.11-32.01-37.71-18.47-18.1-39.07-33.3-61.43-46.25-4.18-2.42-6.95-1.66-9.5,1.43-4.61,5.6-10.74,9.32-16.33,13.67-14.93,11.61-31.58,20.1-49.42,26.45-30.36,10.8-61.47,13.7-93.13,8.5-38.46-6.31-72.05-22.91-100.16-50.12-2-1.93-3.4-2.19-5.85-.84-21.69,11.86-41.24,26.72-59.53,43.18-13.37,12.03-24.61,26.06-34.97,40.78-2.07,2.95-2.35,5.06-.1,8.14,8.86,12.11,18.37,23.69,28.91,34.35,18.99,19.2,40.22,35.54,63.87,48.71,38.47,21.42,79.65,33.48,123.65,35.45,12.45.56,24.94.09,38.42.09Z"/>
      <path class="cls-3" d="m1434.99,620.16c-.38,2.24-1.59,3.97-4.04,3.99-2.65.02-4.28-1.64-4.19-4.31.09-2.45,1.77-3.87,4.17-3.82,2.44.05,3.73,1.66,4.05,4.14Z"/>
      <path class="cls-5" d="m347.59,294.87c-.15.98-.37,1.94-1.67,1.73-.3-.05-.81-.69-.74-.88.44-1.14,1.54-.72,2.41-.85h0Z"/>
      <path class="cls-4" d="m1030.19,173.48c1.04-13.04,3.77-25.67,7.99-38.11,5.72-16.88,32.02-32,45.06-31.54,10.55.37,19.05,4.48,25.4,12.53,10.6,13.43,17.71,28.28,17.81,45.98.02,3.95-.02,7.94-.11,11.88-.17,7.12-4.53,11.67-10.68,14.5-7.39,3.4-14.9,6.54-22.39,9.73-5.87,2.49-6.97,4.3-5.8,10.51,3.71,19.7,10.89,38.08,20.56,55.63,7.33,13.29,16.77,24.72,27.63,35.19,3.7,3.56,7.12,3.04,10.78.78,4.67-2.89,9.09-6.2,13.79-9.04,5.66-3.42,10.88-7.41,18.43-6.74,5.51.49,9.98,2.8,13.87,5.72,14.32,10.73,25.84,24.1,30.22,41.75,4.79,19.33.54,32.03-20.27,42.74-9.31,4.8-19.29,8.17-30.05,6.91-6.78-.8-13.26-3.03-19.58-5.58-36.95-14.89-65.94-39.71-88.31-72.26-25.3-36.81-36.03-78-35.01-122.43.05-2.27.4-4.54.61-6.81.02-.44.05-.88.07-1.33Z"/>
      <path class="cls-4" d="m1257.78,221.46c.04,12.26-.9,24.38-5.1,36.05-1.36,3.76-3.78,6.03-7.83,6.25-4.11.23-6.63-1.98-8.45-5.46-1-1.9-.97-3.65-.29-5.56,14.62-41.14-6.02-85.53-51.37-98.65-1.56-.45-3.18-.7-4.73-1.19-4.71-1.48-7.09-5.56-6.05-10.24.95-4.3,4.81-6.97,9.64-6.22,6.14.95,11.99,3.06,17.64,5.57,29,12.87,47.62,34.45,54.6,65.63.88,3.93,1.19,7.98,1.77,11.98.06.62.11,1.24.17,1.85Z"/>
      <path class="cls-4" d="m1218.41,230.26c.35,7.29-.83,14.32-3.43,21.09-1.57,4.09-7.16,6.5-10.79,4.94-4.38-1.88-6.96-7.01-5.32-11.2,9.05-23.06-3.87-49.91-29.77-57.19-2.98-.84-5.99-1.44-8.01-4.21-1.77-2.43-2.69-5.24-1.33-7.74,1.62-2.98,4.12-5.49,8.08-5.48,3.17,0,6.1,1.06,8.99,2.12,22.24,8.15,36.32,23.48,40.87,46.98.67,3.48.49,7.12.71,10.69Z"/>
      <path class="cls-3" d="m1257.78,221.46c-.06-.62-.11-1.24-.17-1.85.68.56.73,1.18.17,1.85Z"/>
      <path class="cls-6" d="m1030.19,173.48c-.02.44-.05.88-.07,1.33-.37-.46-.34-.91.07-1.33Z"/>
      <path class="cls-4" d="m580.49,199.05c.92,14.91-8.23,17.94-18.17,18.57-7.41.47-14.27-8.92-14.25-18.62.02-10.81,6.42-17.82,16.29-17.86,10.61-.04,16.14,6.1,16.13,17.91Z"/>
      <path class="cls-6" d="m251.18,704.78c-3.8.21-7.23-1.48-10.11-4.35-9.36-9.3-18.72-18.6-27.99-27.99-4.99-5.05-6.16-11.89-3.34-18,2.71-5.87,9.07-9.26,16.17-8.61,3.61.33,6.19,2.69,8.69,4.88,4.77,4.16,8.99,8.9,13.83,13.03,2.52,2.15,3.6,1.96,5.7-.21,17.29-17.8,37.27-31.85,59.77-42.33,8.12-3.78,16.42-7.13,25-9.74,9.6-2.93,18.41,1.09,21.09,9.61,2.76,8.79-2.13,17.37-11.88,20.31-15.86,4.79-30.12,12.72-44.11,21.39-15.39,9.53-27.85,22.11-39.2,35.96-3.45,4.21-7.8,6.24-13.6,6.05Z"/>
      <path class="cls-2" d="m999.15,739.58c-.43,101.67-71.75,166.49-148.43,170.64-97.91,5.31-174.55-67.43-174.23-161.01.14-41.58,14.85-77.99,42.35-108.96,21.8-24.56,49.3-41.24,81.16-47.88,59.38-12.38,111.98,1.96,154.8,46.23,29.77,30.79,43.75,68.22,44.36,100.98Z"/>
      <path class="cls-2" d="m861.8,1112.42c-13.48,0-25.97.47-38.42-.09-44-1.97-85.17-14.03-123.65-35.45-23.65-13.16-44.88-29.51-63.87-48.71-10.54-10.65-20.05-22.23-28.91-34.35-2.25-3.08-1.97-5.19.1-8.14,10.36-14.72,21.6-28.76,34.97-40.78,18.29-16.45,37.84-31.32,59.53-43.18,2.45-1.34,3.86-1.09,5.85.84,28.11,27.21,61.7,43.81,100.16,50.12,31.66,5.2,62.77,2.29,93.13-8.5,17.84-6.35,34.49-14.83,49.42-26.45,5.58-4.34,11.72-8.07,16.33-13.67,2.55-3.1,5.32-3.86,9.5-1.43,22.36,12.95,42.96,28.15,61.43,46.25,11.84,11.6,22.84,23.85,32.01,37.71,1.56,2.36,1.78,3.83,0,6.34-28.25,39.71-64.35,70.14-107.99,91.68-15.42,7.61-31.46,13.9-48,18.44-14.36,3.94-29,7.17-43.98,8.29-2.87.21-5.65,1.51-7.62,1.07Z"/>
    </g>
  </g>
</svg>