<?xml version="1.0" encoding="UTF-8"?>
<svg id="Layer_2" data-name="Layer 2" xmlns="http://www.w3.org/2000/svg" viewBox="0 0 440.43 440.43">
  <defs>
    <style>
      .cls-1 {
        fill: #215fb0;
      }

      .cls-2 {
        fill: #0b2950;
      }

      .cls-3 {
        fill: #0c2b54;
      }

      .cls-4 {
        fill: #2c79dd;
      }
    </style>
  </defs>
  <g id="Layer_1-2" data-name="Layer 1">
    <circle class="cls-2" cx="220.21" cy="220.21" r="220.21"/>
    <g>
      <path class="cls-4" d="m278.85,196.67c-.34.08-.69.16-1.03.24-.62-.14-.88.23-1.03.75-2.98,1.05-5.97,2.11-8.95,3.16-.36.28-.72.55-1.08.83-4.4-.03-8.14,2.38-12.31,3.32-6.15,1.39-12.31,2.29-18.57,2.72-.99-.56-1.99-1.11-3.08-1.72,8.13-4.87,17.51-4.67,27.17-7.88-7.74-.66-22.48,3.01-29.37,6.78-1.14.63-2.14,2.5-3.79.76.62-2.62-.76-4.27-2.54-5.98-12.58-12.09-15.52-29.46-7.79-45.28,2.09-4.27,4.19-8.52,6.29-12.79,2.05,4.18-.39,7.91-1.26,11.77-.72,3.18-2.53,6.16-1.56,9.66,1.63-3.92,2.71-7.99,4.02-11.99,1.03-3.14.56-6.91,3.67-9.23,1.09,3.73-.93,7.27-.64,10.95-1.43.78-.94,1.86-.47,2.93-.14,1.04-.27,2.07-.41,3.11-.64.51-.84,1.13-.46,1.89-.21,1.03-.41,2.06-.62,3.09-2.22,4.54-1.39,8.68,1.66,12.52-1.19,1.63.52,2.95.48,4.46.23.32.47.65.7.97.1.66.19,1.31.29,1.97-.21.84-.2,1.59.77,1.98.32,1.67.63,3.35.95,5.02-.13,1.68-.27,3.36-.4,5.04-1.17,1.81-.57,3.54.6,4.95,1.08,1.3,1.54.11,1.85-.86.35-.37.69-.73,1.04-1.1,3-1.3,6.01-2.59,9.01-3.89,9.22-3.99,19.24-3.6,28.88-5.3.82.13,1.58.09,2.04-.75.99-.09,1.97-.18,2.96-.26,1.56.32,2.4-.77,3.32-1.71.55.06,1.09.11,1.64.17,1.43,2.57-1.05,2.7-2.27,3.37-2.86,1.57-5.84,2.94-8.77,4.39,4.46-.04,8.08-1.91,11.61-4.08,2.51-1.55,4.62-3.91,7.88-3.97-1.89,4.36-5.84,6.61-9.44,9.21-.62-.1-.86.27-.97.78Zm-59.28-15.13c.64,5.98,2.99,11.35,6.95,16.05-.6-5.99-4.96-10.51-6.95-16.05Z"/>
      <path class="cls-4" d="m148.94,240.57c.3,1.02.96,1.71,1.94,2.1.05,1.26.71,2,1.94,2.24-.02,1.46,1.05,2.1,2.1,2.74-.05,1.34.72,1.94,1.93,2.16.06,1.39.78,2.31,2.03,2.85.08,1.4.73,2.4,2.03,2.97,2.75,4.82,5.83,9.5,7.12,15.01-.12.8-.11,1.56.61,2.12.11,1.63.21,3.25.32,4.88-.05,1.67-.1,3.34-.16,5.01-1.68,2.38-1.45,5.1.88,6.25,2.25,1.12,1.78-2.49,3.26-3.31,1.46-.75,3.16-1.16,3.99-2.82,2.32-.76,4.64-1.52,6.96-2.28,1.26.41,2.02-.55,2.93-1.09.36.02.71.04,1.07.06,1.4.04,2.91.7,4.02-.77.99-.08,1.98-.15,2.97-.23,1.67,0,3.33,0,5,0,.99.08,1.98.16,2.97.24.76,1.24,1.92.91,3.03.76.79.15,1.43,1.05,2.36.45,1.03,1.79,2.66,2.48,4.64,2.55.79.15,1.45.98,2.36.44,1.21,2.15,3.37,2.33,5.47,2.82,2.91.69,5.95,1.14,8.4,3.1-1.25-.26-2.05.21-2.36,1.46-5.75.73-11.46.63-17.21-.36-5.18-.9-10.43-1.59-15.7-.51-1.55-1.21-2.25,0-3,1.05-2.65.79-5.3,1.57-7.96,2.36-1.53-.29-2.42.56-3.11,1.76-4.25.07-8.5.14-12.75.2-.25-.42-.72-.86-.7-1.26.64-11.73-1.93-22.62-8.32-32.54-.84-1.3-1.47-2.89-4.54-2.77,5.61,6.9,8.35,14.25,9.86,22.12.38,1.98,1.13,3.88-.66,5.55-6.31-12.89-13.97-25.02-21.46-37.23-4.01-6.55-5.01-13.52-4.2-20.94,3.11,1.32,2.44,4.36,2.83,6.75.93,5.63,3.14,10.53,7.42,14.48-.52-2.35-1.48-4.51-2.57-6.62-1.15-2.23-2.46-4.39-.79-6.92,1.82,1.57,2.68,4.09,5.03,5.15Z"/>
      <path class="cls-4" d="m112.9,338.69c.3.32.6.65.91.97-.18,4.42-3.89,7.89-3.57,12.87,2.95-1.53,5.11-3.39,6.72-5.89.66-.41,1.31-.81,1.97-1.22.99.09,1.97.18,2.96.28,0,0-.03-.03-.03-.03.61,1.29,1.66,1.91,3.06,1.98.38.96,1.02,1.66,2.04,1.96.11.74.21,1.48.32,2.22-.23.75-.46,1.5-.69,2.25-.38.51-1.01.98-1.11,1.54-.36,2.02-3.92,4.06-1.48,5.66,2.04,1.34,3.54-1.9,4.98-3.53,1.32-.28,2.28-1.02,2.92-2.2,1.01-.04,2.01-.08,3.02-.12,1.76.88,2.63,3.08,4.86,3.24,0,.97.02,1.94.02,2.91-7.3,5.33-14.07,11.31-20.88,17.25-.83-.15-1.58-.1-2,.79-.99-.67-1.99-1.34-2.98-2.01-.33-.27-.66-.53-.98-.8-5.52-2.93-3.25-6.52-.86-10.12.92-2.14,1.85-4.29,3.24-7.51-3.56,1.79-6.07,2.8-7.46,5.41-.92.41-1.63,1.03-1.96,2.01-1.52.28-2.94.76-4.05,1.9-2.7-2.62-7.78-3.37-6.92-8.79.28-.36.56-.71.83-1.07.08-.33.16-.66.24-.99.21-.35.42-.7.63-1.05.77-1.95,1.54-3.9,2.31-5.85.24-.36.48-.73.72-1.09.08-.36.16-.71.24-1.07.49-.11.86-.33.72-.93.76-2.01,1.53-4.01,2.29-6.02.5-.14.88-.37.73-.99.75-1.65,1.5-3.29,2.25-4.94,1.34.29,2.67.58,4.01.87,0,0,0,0,0,0,.52,1.35,1.56,1.97,2.96,2.08Z"/>
      <path class="cls-4" d="m192.89,376.42c1.02.02,2.04.05,3.05.07,3.41,1.82,7.59,1.05,10.91,3.22.72.96,1.44,1.93,2.15,2.89.01,1.33.02,2.66.03,4-.03,1.7-1.18,2.8-2.15,3.99-2.5,1.34-2.45,2.66.02,3.96,1.76,6.29.6,9.81-4.02,12.15-1.38.07-2.94-.62-4,.89-3.37.11-6.56-1.57-9.97-1.05-.42-.92-1.2-.92-2.02-.78-1.49-.05-2.97-.13-4.46-.16-2.12-.04-3.57-.88-3.51-3.21.25-9.14,1.14-18.18,3.97-26.94,3.35.17,6.56,1.72,10,.96Zm-.05,18.16c-1.21.56-4.1-.99-3.92,2.43.17,3.18,2.97,2.62,4.9,2.82,1.66.18,3.92.28,3.99-2.31.09-3.25-2.47-2.85-4.97-2.95Zm1.27-11.2c-1.07,1.02-4.05-1.06-3.85,2.12.14,2.2,2.15,3.18,4.38,3.09,1.89-.08,3.94-.49,4.08-2.7.22-3.44-2.81-1.68-4.61-2.51Z"/>
      <path class="cls-4" d="m268.87,217.47c4.26.21,8.53.43,12.79.64-4.69,4.31-11,3.34-17.11,5.25,1.35.14,2.11.18,2.86.3,6.5,1,12.34-2.11,18.55-2.93-.02.32-.05.64-.07.95-.36.29-.72.59-1.08.88-4.48,4.24-10.05,6.05-15.93,7.18-3.66-1.66-7.33-1.62-11.02-.07-2.65-.04-5.3-.07-7.95-.11-2.14-2.91-4.56-2.31-7.08-.57-5.31-.6-10.61-.68-15.91.13-1.12-1.81-1.64-.85-2.08.45-4.09.13-8.06.93-11.9,2.35-.3-.66-.6-1.31-.89-1.97,1.88-2.27,3.77-4.54,5.65-6.81,2.33,2.41,3.31.63,4.23-1.35.71-.68,1.42-1.37,2.13-2.05,4.08-.15,7-3.22,10.86-4.15,8.39-2.03,16.65-.12,24.96.07.39.93,1.17.94,1.99.82,1.67.05,3.34.11,5.01.16.38.94,1.15.96,1.99.84Zm-48.16,9.65c9.24-1.98,17.96-6.28,27.72-5.88-9.98-1.39-19.29.28-27.72,5.88Z"/>
      <path class="cls-4" d="m286.85,259.69c1.55,2.23,3.88,3.98,4.2,6.95,0,1.67,0,3.33.01,5-.05,1.01-.09,2.01-.14,3.02-.94.36-1.01,1.13-.92,1.98-3.33,7.35-6.09,9.27-12.99,9-5.37-.21-13.26-5.49-14.73-10.3-.92-2.99-1.1-6.03,1.14-8.93,3.38-4.36,6.74-8.55,12.45-9.9,1,0,2,0,3,0,1,.05,1.99.09,2.99.14,1.14,1.87,3,2.56,4.99,3.04Z"/>
      <path class="cls-4" d="m146.89,77.7c-.34.06-.68.12-1.01.19-.36.26-.72.53-1.08.79-.3.03-.6.09-.88.2-1.59-.38-2.41.62-3.14,1.78-4.52-4.3-5.66-10.47-8.64-15.64-.97-1.68-1.44-3.64-2.27-5.42q-2.96-6.32,3.05-9.05c.91.21,1.63.04,1.94-.96,2.68-1.02,5.37-2.04,8.05-3.07.67,0,1.33,0,2-.01,1.33,0,2.66,0,4,0,9.24,1.85,14.03,11.48,11.03,22.22,0,0-.02.02-.02.02-2.02,1.65-4.04,3.31-6.06,4.96-1.32.74-2.64,1.47-3.95,2.2-1.51-.26-2.4.53-3.02,1.79Zm-1.66-23.05c-6.04-.02-6.75,1.14-4.29,6.3.99,2.09,1.9,4.22,2.84,6.33,1.11,2.5,3.05,3.22,5.19,1.68,2.45-1.76,4.1-4.84,2.57-7.35-1.6-2.63-1.04-8.07-6.31-6.95Z"/>
      <path class="cls-4" d="m284.91,63.94c-.33-.08-.66-.16-.99-.24-.34-.26-.67-.51-1.01-.77-.67.04-1.35.08-2.02.12-2.84,2.27-3.11,5.98-4.94,8.82-2.28.12-4.05-1.2-5.97-2.09-2.03-.95-2.43-2.21-1.42-4.35,3.53-7.54,6.88-15.17,10.29-22.77,3.34-.72,6.04,1.24,8.98,2.18,0,.91,0,1.83,0,2.74-.26.37-.52.74-.77,1.11-3.19,5.82-2.46,7.32,4.81,9.85,1.51.27,2.44-.34,2.82-1.82.4-.98.8-1.95,1.21-2.93,2.91-4.32,6.46-2.38,9.96-1.03,0,0-.02-.02-.02-.02-2.32,8.43-6.28,16.15-10.36,23.8-.93,1.74-2.63,2.43-4.6,2.39-1.07-.74-2.14-1.47-3.21-2.21,0-1,.01-2.01.02-3.01.41-1.33.82-2.65,1.23-3.98,1.69-1.85,2.36-3.45-.97-4.11,0,0,.03.06.03.06-.15-.53-.42-.9-1.05-.79-.31-.08-.63-.15-.94-.2-.35-.25-.7-.5-1.05-.75Z"/>
      <path class="cls-4" d="m332.85,346.62c.33.33.66.67.99,1,.32,1.81,1.54,3.57-1.23,4.93-2.16,1.06-3.91,3-5.74,4.66-.74.67-2.27,1.25-1.06,2.74,1,1.24,2.19,2.17,3.82,1.14.83-.52,1.39-1.5,2.25-1.94,3.4-1.73,5.24-6.28,9.98-5.58.34.34.68.69,1.02,1.03.23,1.67,1.46,3.35-.02,5.02-4.7,3.95-9.85,7.37-14.04,11.93-1.97.48-3.83,1.57-5.98,1.06-4.51-5.68-8.96-11.41-13.56-17.01-2.41-2.94-4.01-4.98.61-7.91,5.39-3.42,10-8.06,14.96-12.17.65.07,1.3.15,1.95.22.95.98,1.9,1.96,2.86,2.93-.75,4.97-5.61,6.11-8.44,9.13-1.04,1.11-3.75,2.16-2.1,4.13,1.35,1.61,3.14.24,4.8-.8,2.82-1.77,4.74-5.46,8.93-4.53Z"/>
      <path class="cls-4" d="m263.83,163.67c-2.37.37-3.88,2.33-5.99,3.19-.36.26-.72.53-1.07.79-2.62.37-4.8,1.71-6.92,3.18-.35.28-.69.55-1.04.83-2.16.17-3.33,1.94-4.92,3.02-.58-.03-1.15-.07-1.73-.1-.06-11.7,7-18.82,15.79-24.98,3.85-2.7,8.34-4.71,10.88-9.03,1.36-.47,1.95-1.5,2.09-2.85,0,0-.03.02-.03.02.24-.33.48-.67.73-1,2.62-4.69,6.96-7.93,10.25-12.05,1.33-.31,2.65-.63,3.98-.94-1.62,5.1-7.58,7.59-8.48,13.48,3.03-.2,3.01-5.26,6.65-3.39,0,.62.02,1.24.03,1.85-2.12,4.75-3.91,9.6-6.59,14.16-3.22,5.46-7.88,9.19-12.61,13-.63-.09-.88.29-1.01.82Zm6.91-15.58c-6.41,8.36-18.12,11.15-22.86,21.3,6.33-8.5,17.95-11.26,22.86-21.3Z"/>
      <path class="cls-4" d="m172.14,374.61c-.42.98-.84,1.96-1.26,2.93-.77.21-1.6.33-1.88,1.27-.67-.09-1.34-.17-2.01-.26-3.05-1.47-6.11-2.9-9.13-4.42-1.39-.7-2.59-.6-3.42.7-1.06,1.66.52,2.47,1.46,3.09,3.02,1.97,6.36,3.24,9.95,3.77,0,0-.04-.04-.04-.04.1.65.2,1.3.3,1.95-.43.99-.86,1.97-1.29,2.96-1.79,1.28-3.58,1.29-5.57.34-1.61-.77-3.38-1.17-5.06-1.79-1.41-.52-3.15-1.26-3.91.41-.94,2.05,1,2.78,2.51,3.5,2.95,1.4,5.73,3.25,9.14,3.42.63.4,1.25.8,1.88,1.2.1.65.19,1.3.29,1.96-1.11,4.28-3.72,4.71-7.4,3.11-4.2-1.83-8.5-3.42-12.75-5.11-.13-.5-.35-.87-.96-.73-.36-.08-.73-.17-1.09-.25-2.59-1.33-3.32-3.33-2.17-6.02.05-.34.1-.68.15-1.02.89-.45.87-1.18.6-1.98,1.41-1.77,2.07-3.83,2.38-6.03.95-.36,1.02-1.12.9-1.96,1.58-2.82,2.9-5.73,3.18-9,.49-.12.86-.33.7-.94,1.23-3.08,3.42-1.25,5.29-1.04,1.44,1.24,3.13,1.78,5,1.83,1.64.8,3.08,2.09,5.07,1.99,2.13,1.4,4.36,2.57,6.93,2.96.33.07.66.14,1,.2.41,1,.83,2,1.24,2.99Z"/>
      <path class="cls-4" d="m242.88,389.45c1.33.72,2.65,1.44,3.98,2.16,1.44,3.64,1.37,7.31.19,10.99-1.07,1.05-2.14,2.1-3.21,3.15-.38.27-.75.54-1.13.81-4.96,1.85-10.15,1.33-15.16.84-4.11-.4-6.38-3.65-6.84-7.87,3.88-1.25,7.63-2.11,11.08,1.29,1.51,1.49,3.45.81,5.04-.29.46-.32,1-1.13.89-1.57-.52-2.05-2.6-1.97-4.03-2.18-3.78-.57-7.5-1.16-10.79-3.26-5.74-7.07-4.1-11.5,5.97-16.1,3.66.01,7.33.03,10.99.04,2.4,1.32,4.76,2.69,6.2,5.16-.09.99-.17,1.99-.26,2.98-.98.06-1.96.12-2.93.17-3.44.6-6.28-1.57-9.47-2.04-1.37-.2-2.93.05-3.23,1.6-.33,1.69,1.11,2.13,2.52,2.37,3.4.56,6.79,1.17,10.18,1.76Z"/>
      <path class="cls-4" d="m243.93,58.97c-1.68,0-3.36.02-5.05.03-1.41-.29-1.92.47-2,1.73-1.77,1.43-3.85.96-5.85.96-.37-.25-.74-.5-1.11-.75-2.56-.27-2.98-1.77-1.87-3.74,4.26-7.56,8.65-15.05,12.88-22.63,1.29-2.3,3.38-2.21,5.14-1.59,1.96.69,3.83.79,5.8.75.66.67,1.32,1.34,1.98,2.01.06.66.12,1.33.17,1.99-.17.84-.13,1.6.78,2.03.08,1.66.15,3.32.23,4.97-.12,2.22.42,4.24,1.81,6,.05,1,.1,2,.14,2.99-.28,3.51.56,6.79,2.08,9.93-.11.34-.22.67-.33,1.01-.3.33-.6.66-.91,1-.97-.03-1.93-.07-2.9-.1-.5-.9-1.27-.77-2.07-.57-2.82-.06-4.24-1.54-4.34-4.33.1-.5-.13-.68-.61-.62-.98-.12-1.96-.23-2.95-.35-.35-.24-.7-.48-1.06-.72Zm3.01-14.26c.95-.95.7-1.98-.35-2.35-1.85-.65-1.57,1.05-1.85,2.05-.79,1.44-1.6,2.87-2.35,4.33-.93,1.83-.24,2.78,1.7,3.07,1.72.25,3.01-.05,3-2.15-.01-1.65-.1-3.31-.15-4.96Z"/>
      <path class="cls-4" d="m184.86,237.67c0,3.66,0,7.31,0,10.97-.91.42-.93,1.19-.8,2.02-.04,1-.09,2.01-.13,3.01-1.69,2-1.03,4.67-1.95,6.89-1.66,1.4-1.79.04-2.14-1.13-1.74-5.84-.54-11.83-.96-17.73-.13-1.77.65-3.81-1.75-6.2-.25,9.16-.91,17.31,1.07,25.39.4,1.64,1.27,3.29-1.34,3.8-6.57-8.02-5.67-17.65-5.83-27.05.83-.74.73-1.4-.17-1.98-1.19-3.78-2.18-7.65-3.63-11.34-2.68-6.84-3.12-13.78-1.56-20.9,1.91.98,2.16,2.67,2.29,4.61.26,3.85,1.05,7.59,3.1,11.55,1.28-3.02-1.71-5.85.97-8.04,2.65,4.03,5.29,8.07,7.94,12.1.13,1.59.71,2.97,1.97,4,.38,1.34.76,2.67,1.14,4.01-.28,1.19.39,2.06,1,2.95,0,.35-.01.7-.02,1.05-.12.83-.1,1.6.81,2.02Z"/>
      <path class="cls-4" d="m209.08,203.61c0,.35,0,.7,0,1.05-.1.82-.12,1.61.85,1.97,1.47,7.01-.15,14.04.09,21.05-2.94-3.82-3.47-8.41-4.18-12.95-.85-5.42-1.48-10.93-5.03-15.49-.03,3.32,1.89,6.12,2.14,9.4.47,6.1,1.38,12.16,3.88,17.84.54,1.23,1.24,2.44-.24,3.52-5.77-3.31-8.59-8.8-9.29-14.94-1.06-9.29-3.4-17.94-8.35-25.93-1.14-1.85-2.32-4.03-2.02-6.49,1.91-1.9.05-4.67,1.54-6.98,1.96,5.91,3.34,11.77,7.91,17.11-.11-4.54-4.31-7.31-2.34-11.32,5.22,6,11.01,11.58,14.03,19.19-.35,1.22.41,2.05,1,2.94Z"/>
      <path class="cls-4" d="m293.88,390.56c-2.48-5.74-4.81-11.55-8.03-16.94-1.06-1.9-2.2-2.8-3.62-.3-1.12.16-2.24.31-3.36.47-1.33-.06-2.66-.12-3.99-.18-.42-1-.84-2-1.25-2.99.42-1,.84-2,1.26-2.99,1.66-.74,3.32-1.48,4.99-2.21,1.5.25,2.32-.63,2.95-1.81,1.02-.4,2.03-.8,3.05-1.19,1.49.23,2.32-.59,2.89-1.82,2.37-1.04,4.74-2.08,7.1-3.12,1.35.01,2.7.03,4.05.04,0,0,.07.07.07.07.09,1.61.63,3.01,1.97,4.01-1.21,2.65-4.61,2.55-6.1,4.85-2.07.52-2.83,1.45-.97,3.18.12,1.61.71,2.97,1.99,4.01.16,1.59.67,3,2,4,.44,2.63,1.98,4.74,3.22,7-.41,1.33-.81,2.67-1.22,4-.35.08-.7.16-1.06.23-.62-.13-.85.24-.97.76-.35.09-.69.19-1.04.28-.59-.13-.86.19-.98.71-.32.11-.65.23-.97.34-.66-.13-1.32-.26-1.98-.38Z"/>
      <path class="cls-4" d="m219.73,60.66c-2.28.07-4.56.15-6.84.22-3.35.14-6.8-1.03-10.02.78q-7.99.1-7.99-8.01c0-1.97-.09-3.94-.13-5.91,1.36-1.08.67-1.67-.51-2.14-.04-1.65-.09-3.29-.13-4.94,1.63-2.73.25-5.78.92-8.61q8.35-.65,8.85,8.29c.15,2.79.15,5.58.22,8.37-.71,3.67.73,5.37,4.53,5.03,1.48-.13,2.99-.05,4.48-.07q6.95-.13,6.62,6.98Z"/>
      <path class="cls-4" d="m186.76,262.13c-.62.18-1.24.36-1.86.54-.01-.69-.03-1.38-.04-2.07.95-1.65,1.9-3.3,2.85-4.95.64-.41,1.27-.82,1.91-1.22,2.82.87,4.52-.93,6.27-2.62,2.48-.25,4.91-.65,7.04-2.06,13.25-2.18,26.68.07,39.96-1.54.76.31,1.46.21,2.11-.29,1.28-.04,2.55-.08,3.83-.12-.37,2.34-2.45,2.4-4.09,3.07-10.22,4.17-21.1,4.15-31.83,4.66-7.18.34-14.22.96-21.1,3.02-2.07.62-4.23,1.17-5.04,3.59Z"/>
      <path class="cls-4" d="m226.71,261.95c-2.28.2-4.56.4-6.85.61-.94-1.06-1.59-.54-2.15.4-8.55.87-17.1,1.2-25.65,0-2.7-2.81.44-2.67,1.7-3.05,9.65-2.89,19.73-2.32,29.6-3.09,10.43-.81,20.37-2.45,29.57-7.64,1.16-.65,2.43-2.11,3.97-.51-7.68,7.93-17.42,11.34-28.05,12.81-.96-1-1.59-.46-2.14.46Z"/>
      <path class="cls-4" d="m259.92,391.46c-1.24-4.44-2.48-8.87-3.71-13.31-.89-3.24-.49-5.69,3.66-5.72.82.15,1.57.09,2.04-.74,1.12.06,2.35-.28,3.14.92.82,5.57,2.34,10.93,4.74,16.03.4,1.65.8,3.31,1.2,4.96.09,2.02,1.48,3.87.79,6-2.12,1.32-4.33,2.31-6.91,2.18-.69-.38-1.38-.77-2.07-1.15-.71-2.69-1.42-5.38-2.13-8.07-.25-.37-.51-.74-.76-1.11Z"/>
      <path class="cls-4" d="m181.07,48.67c0,.35,0,.7,0,1.06.68,3.41,1.19,6.88,3.02,9.94-.03.35-.05.7-.08,1.06-.07,1.32-.15,2.64-.22,3.96-.63.07-1.26.15-1.88.22-.82-.13-1.6-.14-2.02.77-4.15.73-5.6-1.61-6.06-5.22-.25-1.93-.7-3.84-1.07-5.76-.27-.36-.54-.72-.82-1.08.04-4-2.18-7.46-2.66-11.33-.26-2.08-1.74-4.6,1.63-5.68.85.14,1.59.04,2.02-.84.66-.07,1.32-.14,1.98-.22,1,.07,2,.13,2.99.2.07.33.14.65.22.98.39,4.13,1.29,8.13,2.96,11.94Z"/>
      <path class="cls-1" d="m256.91,248.68c-1.54-1.6-2.82-.15-3.97.51-9.19,5.19-19.13,6.83-29.57,7.64-9.87.77-19.95.2-29.6,3.09-1.26.38-4.41.24-1.7,3.05-1.95.85-3.67.28-5.3-.84.81-2.42,2.97-2.97,5.04-3.59,6.88-2.07,13.92-2.69,21.1-3.02,10.72-.51,21.61-.48,31.83-4.66,1.64-.67,3.71-.73,4.09-3.07,3.35-1.42,6.7-2.84,10.06-4.26.32.07.64.12.97.14.1,2.31-.96,3.93-2.94,5.02Z"/>
      <path class="cls-1" d="m162.68,285.89c1.79-1.67,1.04-3.57.66-5.55-1.51-7.87-4.25-15.22-9.86-22.12,3.07-.12,3.7,1.47,4.54,2.77,6.39,9.92,8.96,20.82,8.32,32.54-.02.41.46.84.7,1.26-1.37,5.93-5.28,10.92-6.31,16.98-.27,1.6-.64,3.19-.97,4.79-.74.52-.79,1.27-.69,2.07-.25.89.04,2.4-1.2,2.37-1.38-.03-.97-1.51-.89-2.39.57-5.87,2.65-11.37,4.87-16.72,2.24-5.38,2.6-10.56.82-16Z"/>
      <path class="cls-1" d="m195.88,251.8c-1.75,1.69-3.45,3.49-6.27,2.62,4.5-6.82,11.26-11.49,16.63-17.5,2.11-2.37,3.42-4.42.36-6.9,1.48-1.08.78-2.29.24-3.52-2.49-5.68-3.41-11.74-3.88-17.84-.25-3.28-2.17-6.08-2.14-9.4,3.55,4.56,4.18,10.07,5.03,15.49.71,4.54,1.24,9.13,4.18,12.95.67.75,1.34,1.5,2.02,2.26.3.66.6,1.31.89,1.97-3.14,5.69-9.02,9.04-12.42,14.5-2.15,1.27-4.4,2.45-4.65,5.37Z"/>
      <path class="cls-1" d="m184.86,260.59c.01.69.03,1.38.04,2.07-3.23,6.06-7.5,11.54-10.16,17.93-1.55,1.33-3.05,2.67-1.78,5-1.47.81-1.01,4.42-3.26,3.31-2.33-1.15-2.56-3.87-.88-6.25,3.1-.21,3.43-2.78,4.22-4.95,1.39-2.19,2.67-4.45,4.18-6.55,1.67-2.33,1.71-4.41-.36-6.46,2.6-.51,1.74-2.16,1.34-3.8-1.98-8.08-1.32-16.23-1.07-25.39,2.4,2.39,1.62,4.43,1.75,6.2.42,5.9-.78,11.89.96,17.73.35,1.18.48,2.53,2.14,1.13.96.01,1.92.02,2.89.04Z"/>
      <path class="cls-1" d="m221.93,221.78c-.91,1.99-1.9,3.77-4.23,1.35,2.44-6.15,5.89-11.78,9.11-17.52,1.65,1.74,2.65-.13,3.79-.76,6.9-3.77,21.64-7.43,29.37-6.78-9.66,3.21-19.04,3.01-27.17,7.88,1.09.61,2.08,1.17,3.08,1.72-2.58,2.55-6.41-.51-9,2-.26.31-.53.62-.79.93-1.44,3.01-2.89,6.01-4.33,9.02-.99.8-.76,1.5.17,2.14Z"/>
      <path class="cls-1" d="m227.64,141.79c-3.12,2.32-2.64,6.09-3.67,9.23-1.32,3.99-2.39,8.07-4.02,11.99-.96-3.51.84-6.49,1.56-9.66.87-3.86,3.31-7.59,1.26-11.77,0-4.72,0-9.44,0-14.17.53-.07,1.05-.14,1.58-.21,1.34,4.8,4.78,9,3.29,14.59Z"/>
      <path class="cls-3" d="m341.86,353.57c-4.74-.69-6.58,3.85-9.98,5.58-.86.43-1.42,1.42-2.25,1.94-1.63,1.03-2.82.1-3.82-1.14-1.2-1.48.32-2.07,1.06-2.74,1.83-1.66,3.58-3.6,5.74-4.66,2.77-1.36,1.55-3.12,1.23-4.93,2.27,2.52,5,4.43,8.02,5.95Z"/>
      <path class="cls-1" d="m194.05,181.48c-1.97,4.01,2.23,6.78,2.34,11.32-4.57-5.34-5.95-11.21-7.91-17.11-1.49,2.31.37,5.08-1.54,6.98-2.47-4.51-.9-8.73.96-12.92.68.3,1.37.6,2.05.91-.42,4.29,2.4,7.34,4.1,10.83Z"/>
      <path class="cls-3" d="m332.85,346.62c-4.19-.92-6.11,2.77-8.93,4.53-1.66,1.04-3.45,2.41-4.8.8-1.65-1.97,1.05-3.02,2.1-4.13,2.83-3.02,7.69-4.16,8.44-9.13,1.04.11,2.36.6,1.89,1.64-1.16,2.56.51,4.28,1.3,6.29Z"/>
      <path class="cls-1" d="m242.16,174.59c.58.03,1.15.07,1.73.1-3.33,6.34-6.67,12.68-10,19.02-.26.3-.51.6-.77.91-.39,1.36-.77,2.71-1.16,4.07-.84.36-.5.74-.02,1.12-.32.97-.77,2.16-1.85.86-1.17-1.41-1.77-3.14-.6-4.95,1.72-.83,2.3-2.29,2.23-4.09,3.4-5.73,6.2-11.82,10.44-17.04Z"/>
      <path class="cls-3" d="m290.86,78.93c1.97.04,3.67-.65,4.6-2.39,4.09-7.65,8.05-15.37,10.36-23.8,2.22.37,2.08,1.71,1.36,3.29-3.43,7.53-6.74,15.11-10.34,22.55-1.53,3.15-3.75,4.41-5.98.35Z"/>
      <path class="cls-1" d="m143.92,235.41c-1.66,2.53-.35,4.69.79,6.92,1.08,2.1,2.05,4.27,2.57,6.62-4.28-3.95-6.49-8.84-7.42-14.48-.39-2.39.28-5.43-2.83-6.75-.18-1.2-.22-2.36.89-3.2,2.41.86,1.58,4.27,4.01,5.11.41,1.01.83,2.02,1.24,3.03.25.92.5,1.84.75,2.76Z"/>
      <path class="cls-3" d="m229.12,288.83c-2.45-1.96-5.49-2.42-8.4-3.1-2.1-.5-4.26-.67-5.47-2.82,3.51-.21,6.56,1.85,10.13,1.89,3.06.04,6.07,1.2,9.2,0,.98-.38,2.45-.39,2.91,1.06.44,1.37-.47,2.25-1.65,2.59-2.35.67-4.37,2.44-7.01,2.18.1-.6.19-1.19.28-1.79Z"/>
      <path class="cls-3" d="m161.91,392.44c-3.41-.17-6.19-2.01-9.14-3.42-1.5-.72-3.45-1.44-2.51-3.5.77-1.67,2.5-.93,3.91-.41,1.68.62,3.46,1.02,5.06,1.79,1.99.95,3.78.95,5.57-.34,1.26,1.16.72,2.15-.52,2.66-1.54.62-2.57,1.41-2.39,3.21Z"/>
      <path class="cls-1" d="m284.01,133.84c-3.64-1.86-3.62,3.2-6.65,3.39.9-5.89,6.86-8.38,8.48-13.48.34-.38.67-.75,1.01-1.12.33-.06.67-.11,1-.17,1.5.13,3.05.19,3.14,2.27-2.65,2.06-4.2,4.82-5.12,7.99-.62.37-1.24.74-1.87,1.11Z"/>
      <path class="cls-3" d="m222.92,393.51c3.29,2.11,7.01,2.69,10.79,3.26,1.43.22,3.51.13,4.03,2.18.11.43-.43,1.25-.89,1.57-1.59,1.1-3.54,1.78-5.04.29-3.45-3.41-7.2-2.54-11.08-1.29-.95-2.62,3.4-3.3,2.2-6.01Z"/>
      <path class="cls-3" d="m159.94,68.73c2.99-10.73-1.79-20.36-11.03-22.22.32-1.42,1.14-1.79,2.55-1.46,7.78,1.79,14.05,15.79,10.09,22.68-.28.48-1.06.67-1.61.99Z"/>
      <path class="cls-1" d="m289.27,186.68c-3.26.05-5.38,2.42-7.88,3.97-3.53,2.18-7.15,4.04-11.61,4.08,2.93-1.45,5.91-2.82,8.77-4.39,1.23-.67,3.7-.8,2.27-3.37,3.01-1.53,6.03-3.06,9.04-4.59.35.1.71.2,1.06.29.24,1.66.01,3.14-1.65,4.02Z"/>
      <path class="cls-1" d="m285.97,220.73c-6.21.81-12.06,3.93-18.55,2.93-.75-.12-1.51-.16-2.86-.3,6.1-1.91,12.42-.94,17.11-5.25,2.4-.21,4.81-.42,7.21-.63.41.39.82.78,1.23,1.17-.76,1.03-1.6,1.95-2.94,2.2-.39-.44-.77-.95-1.28-.13h.09Z"/>
      <path class="cls-1" d="m172.02,211.54c-2.68,2.19.31,5.02-.97,8.04-2.06-3.96-2.85-7.7-3.1-11.55-.13-1.94-.38-3.64-2.29-4.61.13-2.17,1.36-3.91,2.22-5.8,1.68.85.47,3.13,2.01,4.05.33,2.34.65,4.68.98,7.01-.1.12-.3.32-.28.35.16.22.36.41.55.61.76.42.84,1.14.86,1.9Z"/>
      <path class="cls-3" d="m219.73,60.66q.33-7.11-6.62-6.98c-1.49.03-3-.06-4.48.07-3.8.33-5.24-1.36-4.53-5.03,3.53,4.48,8.51,2.76,13,2.95,2.18.09,4.17.47,4.43,2.86.24,2.15,1.88,5.02-1.8,6.13Z"/>
      <path class="cls-3" d="m165.85,381.7c-3.59-.53-6.93-1.8-9.95-3.77-.95-.62-2.52-1.43-1.46-3.09.83-1.31,2.03-1.4,3.42-.7,3.02,1.52,6.08,2.95,9.13,4.42-1.09.79-1.08,1.98-1.14,3.14Z"/>
      <path class="cls-3" d="m242.88,389.45c-3.39-.59-6.79-1.2-10.18-1.76-1.41-.23-2.85-.68-2.52-2.37.3-1.55,1.86-1.81,3.23-1.6,3.2.47,6.04,2.64,9.47,2.04,0,1.23,0,2.46,0,3.69Z"/>
      <path class="cls-3" d="m291,124.73c-.09-2.08-1.64-2.14-3.14-2.27.15-1.57.3-3.37,2.55-2.15,2.05,1.11,3.42.66,4.5-1.22.51-.89,1.15-1.21,1.96-.54,1,.82.73,1.85-.06,2.57-1.7,1.56-3.5,3.01-5.81,3.61Z"/>
      <path class="cls-3" d="m269.78,388.64c-2.4-5.1-3.92-10.46-4.74-16.03,3.42,4.8,4.84,10.19,4.74,16.03Z"/>
      <path class="cls-3" d="m305.84,52.75c-3.49-1.36-7.05-3.29-9.96,1.03.06-1.93-.41-4.61,2.22-4.73,2.96-.14,6.35.02,7.73,3.7Z"/>
      <path class="cls-3" d="m128.97,357.74c-1.43,1.63-2.94,4.88-4.98,3.53-2.44-1.61,1.12-3.64,1.48-5.66.1-.56.73-1.03,1.11-1.54.79,1.22,1.59,2.45,2.39,3.67Z"/>
      <path class="cls-3" d="m181.07,48.67c-1.67-3.81-2.57-7.81-2.96-11.94,3.37,3.39,4.27,7.39,2.96,11.94Z"/>
      <path class="cls-3" d="m195.88,251.8c.25-2.92,2.5-4.1,4.65-5.37,1.29.74,1.78,2.07,2.39,3.31-2.14,1.41-4.57,1.81-7.04,2.06Z"/>
      <path class="cls-3" d="m184.86,260.59c-.96-.01-1.92-.02-2.89-.04.92-2.22.26-4.89,1.95-6.89,1.07,1.02,2.02,2.27,3.78,1.98-.95,1.65-1.9,3.3-2.85,4.95Z"/>
      <path class="cls-3" d="m226.7,176.28c-3.04-3.84-3.88-7.98-1.66-12.52,1.62,4.03.45,8.43,1.66,12.52Z"/>
      <path class="cls-1" d="m257.87,229.67c3.68-1.54,7.36-1.59,11.02.07-3.68,1.56-7.36,1.62-11.02-.07Z"/>
      <path class="cls-3" d="m239.88,377.45c-3.66-.01-7.33-.03-10.99-.04,3.11-2.58,7.96-2.56,10.99.04Z"/>
      <path class="cls-3" d="m206.85,379.72c-3.31-2.17-7.49-1.4-10.91-3.22,4.39-1.5,8.26-1.22,10.91,3.22Z"/>
      <path class="cls-3" d="m202.87,61.67c3.22-1.82,6.67-.65,10.02-.78-3.09,3.39-6.56,2.01-10.02.78Z"/>
      <path class="cls-3" d="m247.06,402.6c1.18-3.69,1.25-7.35-.19-10.99,3.98,3.49,4.05,7.07.19,10.99Z"/>
      <path class="cls-3" d="m192.89,376.42c-3.44.76-6.65-.78-10-.96,2.42-1.92,7.11-1.47,10,.96Z"/>
      <path class="cls-3" d="m275.94,71.87c1.83-2.84,2.1-6.55,4.94-8.82-.51,3.58-.63,7.37-4.94,8.82Z"/>
      <path class="cls-1" d="m195.03,32.06c-.67,2.83.72,5.88-.92,8.61-1.35-3.05-3.15-6.14.92-8.61Z"/>
      <path class="cls-3" d="m143.92,235.41c-.25-.92-.5-1.84-.75-2.76,3.12,1.76,5.36,4.17,5.78,7.91-2.35-1.06-3.2-3.58-5.03-5.15Z"/>
      <path class="cls-3" d="m259.08,63.65c-1.52-3.14-2.36-6.42-2.08-9.93,2.95,2.84,2.8,6.33,2.08,9.93Z"/>
      <path class="cls-3" d="m287.83,44.83c-2.94-.94-5.64-2.9-8.98-2.18,2.87-2.69,6.28-1.87,8.98,2.18Z"/>
      <path class="cls-3" d="m184.08,59.66c-1.83-3.06-2.34-6.53-3.02-9.94,3.24,2.63,3.59,6.15,3.02,9.94Z"/>
      <path class="cls-3" d="m141.92,229.63c-2.44-.84-1.6-4.25-4.01-5.11.09-.8-.13-1.8.76-2.21.94-.43,1.65.23,1.87,1.06.54,2.07.93,4.17,1.38,6.26Z"/>
      <path class="cls-3" d="m172.95,285.6c-1.27-2.33.24-3.67,1.78-5,1.32.13,2.07.84,2.2,2.18-.82,1.65-2.53,2.06-3.99,2.82Z"/>
      <path class="cls-3" d="m173.04,277.7c-.79,2.18-1.12,4.74-4.22,4.95.05-1.67.1-3.34.16-5.01,1.35.02,2.71.04,4.06.06Z"/>
      <path class="cls-3" d="m139.7,386.61c-1.16,2.68-.42,4.68,2.17,6.02-1.75-.11-3.93.39-4.57-1.86-.55-1.92.33-3.51,2.41-4.15Z"/>
      <path class="cls-3" d="m153.86,73.71c2.02-1.65,4.04-3.31,6.06-4.96-.04,4.07-2.52,5.17-6.06,4.96Z"/>
      <path class="cls-3" d="m169.9,201.67c-1.54-.92-.33-3.2-2.01-4.05.95-2.34,2.08-2.56,2.88-.02.42,1.33.4,2.93-.86,4.08Z"/>
      <path class="cls-1" d="m242.84,228.99c2.52-1.74,4.94-2.34,7.08.57-2.38.06-4.81.8-7.08-.57Z"/>
      <path class="cls-3" d="m169.9,371.41c-2.57-.38-4.79-1.56-6.93-2.96,3-.64,5.41.12,6.93,2.96Z"/>
      <path class="cls-3" d="m274.88,373.61c1.33.06,2.66.12,3.99.18-.37,1.85-1.26,3.16-3.36,2.43-1.27-.44-1.83-1.4-.64-2.62Z"/>
      <path class="cls-3" d="m322.85,372.62c2.15.5,4.01-.59,5.98-1.06-1.56,2.78-3.21,5.06-5.98,1.06Z"/>
      <path class="cls-3" d="m271.78,399.6c.69-2.13-.7-3.98-.79-6,2.12,1.75,4.74,3.44.79,6Z"/>
      <path class="cls-3" d="m256.86,50.73c-1.39-1.77-1.93-3.79-1.81-6,2.61,1.4,2.58,3.59,1.81,6Z"/>
      <path class="cls-3" d="m286.85,122.63c-.34.37-.67.75-1.01,1.12-1.33.31-2.65.63-3.98.94,1.06-2.14,2.18-4.13,4.98-2.07Z"/>
      <path class="cls-3" d="m342.87,359.62c1.47-1.67.25-3.34.02-5.02,1.96.38,2.78,1.8,2.68,3.56-.09,1.53-1.57,1.37-2.69,1.46Z"/>
      <path class="cls-3" d="m290.1,218.66c-.41-.39-.82-.78-1.23-1.17.28-1.32,1.09-1.88,2.43-1.66.75.12,1.18.59,1,1.31-.27,1.1-1.23,1.35-2.2,1.53Z"/>
      <path class="cls-3" d="m290.92,182.66c-.35-.1-.71-.19-1.06-.29.32-1.33.76-2.58,2.51-2.18.66.15,1.14.75.95,1.45-.34,1.28-1.5.89-2.4,1.02Z"/>
      <path class="cls-3" d="m199.89,278.47c-1.67,0-3.33,0-5,0,1.67-2.66,3.33-2.66,5,0Z"/>
      <path class="cls-3" d="m291.06,271.65c0-1.67,0-3.33-.01-5,2.65,1.66,2.64,3.33.01,5Z"/>
      <path class="cls-3" d="m189.95,170.65c-.68-.3-1.37-.6-2.05-.91.18-1.01-.26-2.82,1.38-2.45,1.79.4,1.97,1.92.67,3.36Z"/>
      <path class="cls-3" d="m300.87,388.61c.41-1.33.81-2.67,1.22-4,1.38.33,1.92,1.24,1.58,2.57-.37,1.46-1.65,1.36-2.8,1.43Z"/>
      <path class="cls-3" d="m286.85,259.69c-1.99-.48-3.85-1.17-4.99-3.04,2.2.13,4.41.25,4.99,3.04Z"/>
      <path class="cls-3" d="m172.14,374.61c-.41-1-.83-2-1.24-2.99,1.16-1.17,2.04-.65,2.61.56.64,1.34-.04,2.12-1.37,2.44Z"/>
      <path class="cls-3" d="m157.91,366.46c-1.87-.05-3.57-.6-5-1.83,2.34-1.21,3.94-.41,5,1.83Z"/>
      <path class="cls-3" d="m287.93,65.62c3.34.66,2.66,2.26.97,4.11-1.35-1.13-.97-2.66-.97-4.11Z"/>
      <path class="cls-3" d="m212.89,282.47c-1.97-.07-3.61-.76-4.64-2.55,2.12-.19,3.92.18,4.64,2.55Z"/>
      <path class="cls-3" d="m209.04,386.61c-.01-1.33-.02-2.66-.03-4,2.74,1.31,2.75,2.64.03,4Z"/>
      <path class="cls-3" d="m181.93,227.65c-1.26-1.04-1.83-2.41-1.97-4,1.98.68,3.37,1.66,1.97,4Z"/>
      <path class="cls-3" d="m301.94,361.58c-1.34-1-1.88-2.39-1.97-4.01,1.87.74,3.22,1.73,1.97,4.01Z"/>
      <path class="cls-3" d="m298.87,377.61c-1.33-1-1.84-2.41-2-4,2.05.64,3.45,1.61,2,4Z"/>
      <path class="cls-3" d="m299.91,357.5c-1.35-.01-2.7-.03-4.05-.04,1.37-2.76,2.72-2.64,4.05.04Z"/>
      <path class="cls-3" d="m191.92,278.7c-1.11,1.47-2.63.81-4.02.77.92-2.47,2.36-2.18,4.02-.77Z"/>
      <path class="cls-3" d="m198.89,407.59c1.07-1.51,2.62-.82,4-.89-.84,2.5-2.3,2.27-4,.89Z"/>
      <path class="cls-3" d="m287.67,73.71c0,1-.01,2.01-.02,3.01-.88-.15-2.17.2-2.27-1.11-.1-1.42,1.17-1.67,2.29-1.9Z"/>
      <path class="cls-3" d="m183.78,64.68c.07-1.32.15-2.64.22-3.96,2.68,1.47,2.64,2.79-.22,3.96Z"/>
      <path class="cls-3" d="m262.8,400.63c.69.38,1.38.77,2.07,1.15-.24,1.03-.72,1.85-1.88,1.14-.92-.57-1.09-1.45-.19-2.29Z"/>
      <path class="cls-3" d="m231.72,191.62c.07,1.81-.51,3.26-2.23,4.09.13-1.68.27-3.36.4-5.04.61.32,1.22.63,1.83.95Z"/>
      <path class="cls-3" d="m274.88,367.62c-.42,1-.84,2-1.26,2.99-.83-.23-1.67-.6-1.49-1.61.28-1.56,1.64-1.29,2.74-1.39Z"/>
      <path class="cls-3" d="m278.87,256.51c-1,0-2,0-3,0,1-2.46,1.99-2.46,3,0Z"/>
      <path class="cls-3" d="m294.88,369.6c-1.86-1.73-1.1-2.65.97-3.18,0,1.16.09,2.34-.97,3.18Z"/>
      <path class="cls-3" d="m206.91,394.56c-2.47-1.31-2.52-2.63-.02-3.96,0,1.32.02,2.64.02,3.96Z"/>
      <path class="cls-3" d="m259.85,243.66c-.33-.02-.65-.07-.97-.14.17-.83.47-1.62,1.45-1.62.32,0,.93.52.92.78-.03.78-.78.86-1.4.98Z"/>
      <path class="cls-3" d="m205.89,279.47c-1.11.15-2.27.49-3.03-.76,1.44-1.48,2.45-1.23,3.03.76Z"/>
      <path class="cls-3" d="m134.91,355.42c-1.01.04-2.01.08-3.02.12.91-2.4,1.91-2.63,3.02-.12Z"/>
      <path class="cls-3" d="m226.53,155.67c-.47-1.08-.96-2.16.47-2.93,1.14,1.18,1.11,2.18-.47,2.93Z"/>
      <path class="cls-3" d="m245.82,385.59c.09-.99.17-1.99.26-2.98.75.21,1.52.44,1.55,1.39.04,1.22-.88,1.44-1.82,1.59Z"/>
      <path class="cls-3" d="m139.8,361.57c0-.97-.02-1.94-.02-2.91.99.15,2,.34,1.83,1.67-.12,1.01-1.01,1.1-1.81,1.24Z"/>
      <path class="cls-3" d="m282.82,363.6c-.63,1.18-1.45,2.05-2.95,1.81.29-1.73,1.6-1.8,2.95-1.81Z"/>
      <path class="cls-3" d="m160.91,255.63c-1.3-.57-1.95-1.57-2.03-2.97,1.87.18,2.05,1.51,2.03,2.97Z"/>
      <path class="cls-3" d="m146.89,77.7c.62-1.25,1.51-2.04,3.02-1.79-.31,1.77-1.65,1.81-3.02,1.79Z"/>
      <path class="cls-3" d="m282.23,373.32c1.42-2.51,2.56-1.61,3.62.3-1.21-.1-2.41-.2-3.62-.3Z"/>
      <path class="cls-3" d="m184.07,234.6c-.61-.89-1.28-1.76-1-2.95,1.86.46,2.21,1.44,1,2.95Z"/>
      <path class="cls-3" d="m140.77,80.66c.73-1.16,1.54-2.15,3.14-1.78-.33,1.86-1.72,1.84-3.14,1.78Z"/>
      <path class="cls-3" d="m186.83,279.41c-.91.54-1.67,1.49-2.93,1.09.43-1.85,1.4-2.22,2.93-1.09Z"/>
      <path class="cls-3" d="m221.93,221.78c-.92-.65-1.16-1.35-.17-2.14.76.03,1.53.06,2.29.09-.71.68-1.42,1.37-2.13,2.05Z"/>
      <path class="cls-3" d="m209.08,203.61c-.59-.89-1.36-1.73-1-2.94,1.85.47,2.18,1.45,1,2.94Z"/>
      <path class="cls-1" d="m190.86,290.48c.75-1.06,1.45-2.27,3-1.05-.74,1.1-1.87,1.07-3,1.05Z"/>
      <path class="cls-3" d="m294.68,56.71c-.37,1.48-1.31,2.09-2.82,1.82.24-1.68,1.48-1.83,2.82-1.82Z"/>
      <path class="cls-3" d="m179.79,294.6c.69-1.2,1.57-2.05,3.11-1.76-.33,1.82-1.71,1.81-3.11,1.76Z"/>
      <path class="cls-3" d="m124.91,347.65c-1.4-.08-2.44-.7-3.06-1.98,1.5-.08,2.86.06,3.06,1.98Z"/>
      <path class="cls-3" d="m284.01,133.84c.62-.37,1.24-.74,1.87-1.11,0,1.37-.08,2.69-1.84,2.97,0-.62-.02-1.24-.03-1.85Z"/>
      <path class="cls-3" d="m279.18,186.79c-.92.94-1.75,2.02-3.32,1.71.4-1.95,1.86-1.83,3.32-1.71Z"/>
      <path class="cls-3" d="m270.92,137.72c-.14,1.36-.74,2.39-2.09,2.85.03-1.44.26-2.74,2.09-2.85Z"/>
      <path class="cls-3" d="m288.76,360.58c-.57,1.23-1.4,2.05-2.89,1.82.27-1.71,1.56-1.8,2.89-1.82Z"/>
      <path class="cls-3" d="m209.95,206.64c-.97-.36-.95-1.15-.85-1.97,1.15.28,2.12.65.85,1.97Z"/>
      <path class="cls-3" d="m225.66,160.67c-.38-.76-.18-1.38.46-1.89.88.88.52,1.46-.46,1.89Z"/>
      <path class="cls-3" d="m159.08,318.63c-.1-.8-.05-1.55.69-2.07,1.43,1.24.63,1.74-.69,2.07Z"/>
      <path class="cls-3" d="m236.88,60.72c.07-1.26.59-2.01,2-1.73-.19,1.13-.9,1.64-2,1.73Z"/>
      <path class="cls-3" d="m127.27,351.82c-.11-.74-.22-1.48-.32-2.22,1.82.49,2.19,1.19.32,2.22Z"/>
      <path class="cls-1" d="m229.12,288.83c-.09.6-.19,1.19-.28,1.79-.69-.11-1.38-.21-2.07-.32.31-1.26,1.11-1.72,2.36-1.46Z"/>
      <path class="cls-3" d="m186.9,405.77c.83-.14,1.6-.15,2.02.78-1.3,1.38-1.72.45-2.02-.78Z"/>
      <path class="cls-3" d="m179.88,65.67c.42-.92,1.2-.9,2.02-.77-.3,1.23-.73,2.14-2.02.77Z"/>
      <path class="cls-3" d="m290,276.64c-.09-.84-.03-1.61.92-1.98,1.28,1.39.23,1.71-.92,1.98Z"/>
      <path class="cls-3" d="m169,378.82c.28-.94,1.11-1.06,1.88-1.27-.2,1.05-.22,2.37-1.88,1.27Z"/>
      <path class="cls-3" d="m252.87,64.99c.8-.2,1.58-.33,2.07.57-1.12,1.39-1.7.78-2.07-.57Z"/>
      <path class="cls-3" d="m168.65,272.76c-.72-.56-.73-1.32-.61-2.12,1.43.35,2.14.91.61,2.12Z"/>
      <path class="cls-3" d="m166.11,383.61c-.1-.65-.2-1.3-.3-1.95.51.27,1.35.45,1.47.84.24.77-.56.95-1.18,1.1Z"/>
      <path class="cls-3" d="m134.86,49.6c-.31,1-1.04,1.17-1.94.96.26-1.11.55-2.14,1.94-.96Z"/>
      <path class="cls-3" d="m257.84,65.66c.3-.33.6-.66.91-1,.49.36,1.02.83.5,1.4-.53.58-1.03.08-1.41-.4Z"/>
      <path class="cls-1" d="m217.72,262.96c.56-.95,1.21-1.46,2.15-.4-.61.71-1.32.88-2.15.4Z"/>
      <path class="cls-3" d="m228.93,185.65c-.97-.38-.97-1.14-.77-1.98,1.17.31,2,.74.77,1.98Z"/>
      <path class="cls-3" d="m164.08,395.6c-.1-.65-.19-1.3-.29-1.96.52.28,1.37.46,1.49.86.23.78-.58.95-1.2,1.1Z"/>
      <path class="cls-1" d="m194.24,45.61c1.18.47,1.87,1.06.51,2.14-.91-.54-.94-1.29-.51-2.14Z"/>
      <path class="cls-1" d="m226.71,261.95c.55-.92,1.18-1.46,2.14-.46-.58.75-1.29.92-2.14.46Z"/>
      <path class="cls-3" d="m272.91,188.77c-.47.83-1.22.87-2.04.75.31-1.26.75-2.17,2.04-.75Z"/>
      <path class="cls-3" d="m261.87,216.47c-.83.12-1.6.11-1.99-.82,1.31-1.3,1.7-.36,1.99.82Z"/>
      <path class="cls-3" d="m184.06,250.65c-.13-.83-.11-1.6.8-2.02,1.36,1.32.41,1.72-.8,2.02Z"/>
      <path class="cls-3" d="m144.91,46.52c-.67,0-1.33.01-2,.01.33-.44.61-1.18,1.01-1.25.71-.12.86.64,1,1.24Z"/>
      <path class="cls-3" d="m156.85,249.81c-1.21-.21-1.98-.81-1.93-2.16,1.29.14,1.92.87,1.93,2.16Z"/>
      <path class="cls-3" d="m261.91,371.69c-.46.83-1.21.89-2.04.74.31-1.26.76-2.14,2.04-.74Z"/>
      <path class="cls-3" d="m244.99,247.91c-.65.5-1.35.6-2.11.29.52-1.46,1.22-1.57,2.11-.29Z"/>
      <path class="cls-3" d="m293.88,390.56c.66.13,1.32.25,1.98.38-.17.6-.41,1.35-1.14,1.07-.41-.16-.57-.94-.84-1.45Z"/>
      <path class="cls-3" d="m152.82,244.91c-1.23-.24-1.89-.98-1.94-2.24,1.36.13,1.98.9,1.94,2.24Z"/>
      <path class="cls-3" d="m184.86,237.67c-.91-.41-.93-1.19-.81-2.02,1.21.29,2.18.69.81,2.02Z"/>
      <path class="cls-3" d="m254.82,39.75c-.91-.42-.96-1.18-.78-2.03,1.23.3,2.17.71.78,2.03Z"/>
      <path class="cls-1" d="m170.85,235.65c.9.59,1,1.25.17,1.98-.86-.59-.93-1.25-.17-1.98Z"/>
      <path class="cls-1" d="m224.85,229.57c.44-1.3.96-2.26,2.08-.45-.69.15-1.39.3-2.08.45Z"/>
      <path class="cls-3" d="m140.45,383.61c.27.8.3,1.53-.6,1.98-1.15-1.07-.59-1.61.6-1.98Z"/>
      <path class="cls-3" d="m143.73,375.61c.12.85.05,1.61-.9,1.96-1.23-1.36-.22-1.69.9-1.96Z"/>
      <path class="cls-3" d="m268.87,217.47c-.83.12-1.6.1-1.99-.84,1.32-1.28,1.7-.33,1.99.84Z"/>
      <path class="cls-3" d="m231.93,199.81c-.48-.38-.82-.77.02-1.12.34,0,.68.01,1.02.02-.35.37-.69.73-1.04,1.1Z"/>
      <path class="cls-4" d="m285.87,220.73c.51-.82.89-.31,1.28.13-.43-.04-.85-.08-1.28-.13Z"/>
      <path class="cls-3" d="m226.1,210.62c.26-.31.53-.62.79-.93-.26.31-.53.62-.79.93Z"/>
      <path class="cls-1" d="m284.82,222.56c.36-.29.72-.59,1.08-.88-.36.29-.72.59-1.08.88Z"/>
      <path class="cls-4" d="m171.16,209.65c-.19-.2-.4-.39-.55-.61-.02-.03.18-.23.28-.35.09.32.18.64.27.96Z"/>
      <path class="cls-3" d="m266.76,201.64c.36-.28.72-.55,1.08-.83-.36.28-.72.55-1.08.83Z"/>
      <path class="cls-3" d="m276.79,197.65c.15-.52.4-.89,1.03-.75-.34.25-.68.5-1.03.75Z"/>
      <path class="cls-3" d="m278.85,196.67c.12-.52.36-.89.97-.78-.33.26-.65.52-.97.78Z"/>
      <path class="cls-3" d="m298.84,389.6c.12-.51.35-.89.97-.76-.32.25-.65.51-.97.76Z"/>
      <path class="cls-3" d="m296.83,390.6c.12-.52.38-.84.98-.71-.33.24-.65.48-.98.71Z"/>
      <path class="cls-3" d="m233.12,194.62c.26-.3.51-.6.77-.91-.26.3-.51.6-.77.91Z"/>
      <path class="cls-3" d="m144.79,78.68c.36-.26.72-.53,1.08-.79-.36.26-.72.53-1.08.79Z"/>
      <path class="cls-3" d="m286.9,64.89c.63-.11.9.26,1.05.79-.35-.26-.7-.53-1.05-.79Z"/>
      <path class="cls-3" d="m147.61,365.67c.16.61-.21.81-.7.94.23-.31.47-.62.7-.94Z"/>
      <path class="cls-3" d="m259.92,391.46c.25.37.51.74.76,1.11-.25-.37-.51-.74-.76-1.11Z"/>
      <path class="cls-3" d="m142.96,392.87c.61-.14.83.23.96.73-.32-.24-.64-.49-.96-.73Z"/>
      <path class="cls-3" d="m287.05,48.69c.26-.37.52-.74.77-1.11-.26.37-.52.74-.77,1.11Z"/>
      <path class="cls-3" d="m227.88,181.71c-.23-.32-.47-.65-.7-.97.23.32.47.65.7.97Z"/>
      <path class="cls-3" d="m271.62,136.74c-.24.33-.48.67-.73,1,.24-.33.48-.67.73-1Z"/>
      <path class="cls-3" d="m171.93,53.61c.27.36.54.72.82,1.08-.27-.36-.54-.72-.82-1.08Z"/>
      <path class="cls-3" d="m284.91,63.94c.35.25.7.5,1.05.75-.35-.25-.7-.5-1.05-.75Z"/>
      <path class="cls-3" d="m242.72,406.55c.38-.27.75-.54,1.13-.81-.38.27-.75.54-1.13.81Z"/>
      <path class="cls-3" d="m282.91,62.93c.34.26.67.51,1.01.77-.34-.26-.67-.51-1.01-.77Z"/>
      <path class="cls-3" d="m248.81,171.66c.35-.28.69-.55,1.04-.83-.35.28-.69.55-1.04.83Z"/>
      <path class="cls-3" d="m256.76,167.65c.36-.26.72-.53,1.07-.79-.36.26-.72.53-1.07.79Z"/>
      <path class="cls-3" d="m263.83,163.67c.13-.53.38-.91,1.01-.82-.34.27-.67.54-1.01.82Z"/>
      <path class="cls-3" d="m243.93,58.97c.35.24.7.48,1.06.72-.35-.24-.7-.48-1.06-.72Z"/>
      <path class="cls-3" d="m247.93,60.03c.48-.06.7.12.61.62-.25-.16-.46-.37-.61-.62Z"/>
      <path class="cls-3" d="m229.92,60.92c.37.25.74.5,1.11.75-.37-.25-.74-.5-1.11-.75Z"/>
      <path class="cls-1" d="m219.56,181.54c1.99,5.54,6.35,10.05,6.95,16.05-3.96-4.7-6.3-10.07-6.95-16.05Z"/>
      <path class="cls-3" d="m192.84,394.58c2.5.1,5.06-.3,4.97,2.95-.07,2.58-2.33,2.49-3.99,2.31-1.93-.21-4.73.36-4.9-2.82-.18-3.42,2.71-1.87,3.92-2.43Z"/>
      <path class="cls-3" d="m194.11,383.38c1.81.83,4.83-.93,4.61,2.51-.14,2.21-2.2,2.62-4.08,2.7-2.23.09-4.24-.89-4.38-3.09-.2-3.18,2.78-1.09,3.85-2.12Z"/>
      <path class="cls-1" d="m220.71,227.12c8.44-5.6,17.74-7.27,27.72-5.88-9.76-.4-18.48,3.91-27.72,5.88Z"/>
      <path class="cls-3" d="m145.23,54.65c5.26-1.11,4.71,4.32,6.31,6.95,1.53,2.52-.12,5.59-2.57,7.35-2.15,1.54-4.08.82-5.19-1.68-.94-2.11-1.84-4.24-2.84-6.33-2.46-5.16-1.76-6.32,4.29-6.3Z"/>
      <path class="cls-1" d="m270.74,148.09c-4.91,10.04-16.53,12.8-22.86,21.3,4.74-10.15,16.45-12.94,22.86-21.3Z"/>
      <path class="cls-3" d="m246.94,44.7c.05,1.65.14,3.31.15,4.96.02,2.1-1.28,2.4-3,2.15-1.94-.29-2.64-1.24-1.7-3.07.75-1.46,1.56-2.89,2.35-4.33.73.1,1.47.2,2.2.3Z"/>
      <path class="cls-1" d="m246.94,44.7c-.73-.1-1.47-.2-2.2-.3.28-1.01,0-2.71,1.85-2.05,1.05.37,1.3,1.4.35,2.35Z"/>
    </g>
  </g>
</svg>